<svg width="180" height="56" viewBox="0 0 180 56" fill="none" xmlns="http://www.w3.org/2000/svg">
<path d="M173.042 56H6.95849C3.12056 56 0 52.8196 0 48.8807V7.11927C0 3.19266 3.12056 0 6.95849 0H173.042C176.879 0 180 3.19266 180 7.11927V48.893C180 52.8196 176.891 56 173.042 56Z" fill="black"/>
<path d="M16.356 22.8748C13.4387 28.0613 15.2919 35.9268 18.5201 40.6974C20.1341 43.0827 21.7602 45.2234 23.996 45.2234C24.0438 45.2234 24.0797 45.2234 24.1275 45.2234C25.1796 45.1867 25.9329 44.8442 26.6742 44.5262C27.4991 44.1714 28.348 43.7922 29.6871 43.7922C30.9545 43.7922 31.7675 44.147 32.5566 44.5017C33.3337 44.8442 34.1228 45.1989 35.3065 45.1745C37.8293 45.1255 39.3716 42.8136 40.7346 40.783C42.1574 38.6546 42.8748 36.5873 43.1139 35.8044L43.1258 35.7677C43.1737 35.6332 43.1019 35.4742 42.9704 35.413C42.9704 35.413 42.9585 35.4008 42.9465 35.4008C42.5041 35.2173 38.6184 33.4558 38.5705 28.6362C38.5347 24.7219 41.4878 22.6546 42.0856 22.2876L42.1096 22.2754C42.1693 22.2387 42.2172 22.1653 42.2291 22.0919C42.2411 22.0185 42.2291 21.9329 42.1813 21.8717C40.1368 18.8136 37.0162 18.361 35.7608 18.2999C35.5815 18.2754 35.3902 18.2754 35.1989 18.2754C33.7163 18.2754 32.3055 18.8503 31.1697 19.3029C30.3806 19.621 29.711 19.8901 29.2328 19.8901C28.7067 19.8901 28.0252 19.6087 27.2361 19.2907C26.184 18.8626 24.9764 18.3733 23.709 18.3733C23.6732 18.3733 23.6492 18.3733 23.6253 18.3733C20.6841 18.4222 17.8983 20.147 16.356 22.8748Z" fill="white"/>
<path d="M35.7609 9.88379C33.9794 9.95718 31.8392 11.0826 30.5599 12.6116C29.4719 13.896 28.4078 16.0489 28.6948 18.2141C28.7067 18.3486 28.8263 18.4587 28.9578 18.4709C29.0774 18.4832 29.1969 18.4832 29.3285 18.4832C31.0741 18.4832 32.9512 17.4924 34.2424 15.9021C35.5935 14.2263 36.275 12.0612 36.0717 10.1407C36.0478 9.99388 35.9163 9.88379 35.7609 9.88379Z" fill="white"/>
<path d="M56.3015 12.7705H59.6851C60.5699 12.7705 61.359 12.954 62.0524 13.3332C62.7459 13.7124 63.272 14.2262 63.6546 14.8867C64.0372 15.5473 64.2285 16.3057 64.2285 17.1375C64.2285 17.9815 64.0372 18.7277 63.6546 19.3882C63.272 20.0488 62.7339 20.5748 62.0524 20.9418C61.359 21.321 60.5699 21.5045 59.6851 21.5045H56.3015V12.7705ZM59.6373 20.954C60.4264 20.954 61.1198 20.795 61.7296 20.4769C62.3274 20.1589 62.7937 19.7063 63.1285 19.1314C63.4513 18.5564 63.6187 17.8959 63.6187 17.1619C63.6187 16.4158 63.4513 15.7675 63.1285 15.1925C62.8057 14.6176 62.3394 14.165 61.7296 13.847C61.1318 13.5289 60.4264 13.3699 59.6373 13.3699H56.9232V20.9662H59.6373V20.954Z" fill="white"/>
<path d="M67.0621 21.1501C66.5719 20.8688 66.2013 20.4773 65.9143 19.9636C65.6393 19.4621 65.4958 18.8871 65.4958 18.251C65.4958 17.615 65.6393 17.0523 65.9143 16.5385C66.1893 16.037 66.5719 15.6455 67.0621 15.352C67.5523 15.0706 68.0903 14.9238 68.6881 14.9238C69.286 14.9238 69.8359 15.0706 70.3142 15.352C70.8044 15.6333 71.175 16.0247 71.462 16.5385C71.737 17.04 71.8804 17.615 71.8804 18.251C71.8804 18.8871 71.737 19.4498 71.462 19.9636C71.187 20.4651 70.8044 20.8565 70.3142 21.1501C69.824 21.4315 69.286 21.5783 68.6881 21.5783C68.0903 21.5783 67.5523 21.4315 67.0621 21.1501ZM70.0153 20.6608C70.3979 20.4284 70.7087 20.0981 70.9359 19.6822C71.1631 19.2663 71.2707 18.7893 71.2707 18.251C71.2707 17.7128 71.1631 17.248 70.9359 16.8199C70.7087 16.404 70.4098 16.0737 70.0153 15.8413C69.6327 15.6088 69.1903 15.4865 68.7001 15.4865C68.2099 15.4865 67.7675 15.6088 67.3849 15.8413C67.0023 16.0737 66.6915 16.404 66.4643 16.8199C66.2371 17.2358 66.1295 17.7128 66.1295 18.251C66.1295 18.7893 66.2371 19.2541 66.4643 19.6822C66.6915 20.0981 66.9904 20.4284 67.3849 20.6608C67.7675 20.8932 68.2099 21.0156 68.7001 21.0156C69.1903 21.0156 69.6207 20.8932 70.0153 20.6608Z" fill="white"/>
<path d="M82.7127 14.9971L80.2976 21.5292H79.7237L77.5716 15.8656L75.4075 21.5292H74.8456L72.4304 14.9971H73.0163L75.1445 20.8197L77.3205 14.9971H77.8466L80.0106 20.8075L82.1627 14.9971H82.7127Z" fill="white"/>
<path d="M89.1451 15.6578C89.6114 16.1348 89.8386 16.8199 89.8386 17.7128V21.5293H89.2288V17.7618C89.2288 17.0278 89.0495 16.4651 88.6908 16.0859C88.3321 15.7067 87.818 15.511 87.1724 15.511C86.4191 15.511 85.8333 15.7434 85.4029 16.196C84.9724 16.6486 84.7572 17.2725 84.7572 18.0431V21.5171H84.1475V14.985H84.7333V16.3917C84.9485 15.9391 85.2833 15.5721 85.7137 15.3153C86.1441 15.0584 86.6702 14.9238 87.2561 14.9238C88.0452 14.9483 88.6788 15.1807 89.1451 15.6578Z" fill="white"/>
<path d="M92.3494 12.2446H92.9591V21.5168H92.3494V12.2446Z" fill="white"/>
<path d="M96.4024 21.1501C95.9122 20.8688 95.5416 20.4773 95.2546 19.9636C94.9797 19.4621 94.8362 18.8871 94.8362 18.251C94.8362 17.615 94.9797 17.0523 95.2546 16.5385C95.5296 16.037 95.9122 15.6455 96.4024 15.352C96.8926 15.0706 97.4307 14.9238 98.0285 14.9238C98.6263 14.9238 99.1763 15.0706 99.6545 15.352C100.145 15.6333 100.515 16.0247 100.802 16.5385C101.077 17.04 101.221 17.615 101.221 18.251C101.221 18.8871 101.077 19.4498 100.802 19.9636C100.527 20.4651 100.145 20.8565 99.6545 21.1501C99.1643 21.4315 98.6263 21.5783 98.0285 21.5783C97.4307 21.5783 96.8926 21.4315 96.4024 21.1501ZM99.3556 20.6608C99.7382 20.4284 100.049 20.0981 100.276 19.6822C100.503 19.2663 100.611 18.7893 100.611 18.251C100.611 17.7128 100.503 17.248 100.276 16.8199C100.049 16.404 99.7502 16.0737 99.3556 15.8413C98.973 15.6088 98.5306 15.4865 98.0404 15.4865C97.5502 15.4865 97.1079 15.6088 96.7253 15.8413C96.3427 16.0737 96.0318 16.404 95.8046 16.8199C95.5775 17.2358 95.4699 17.7128 95.4699 18.251C95.4699 18.7893 95.5775 19.2541 95.8046 19.6822C96.0318 20.0981 96.3307 20.4284 96.7253 20.6608C97.1079 20.8932 97.5502 21.0156 98.0404 21.0156C98.5306 21.0156 98.9611 20.8932 99.3556 20.6608Z" fill="white"/>
<path d="M107.067 15.5716C107.486 15.9875 107.701 16.5869 107.701 17.3942V21.5288H107.115V20.3667C106.912 20.7459 106.613 21.0517 106.218 21.2597C105.824 21.4676 105.358 21.5777 104.808 21.5777C104.102 21.5777 103.54 21.4065 103.122 21.064C102.715 20.7215 102.5 20.2689 102.5 19.7184C102.5 19.1802 102.691 18.7398 103.074 18.3973C103.457 18.0548 104.054 17.8958 104.891 17.8958H107.079V17.3698C107.079 16.7581 106.924 16.2933 106.601 15.9875C106.278 15.6695 105.812 15.5104 105.19 15.5104C104.772 15.5104 104.365 15.5838 103.971 15.7306C103.588 15.8774 103.253 16.0854 102.99 16.33L102.679 15.8774C103.002 15.5838 103.385 15.3637 103.827 15.1924C104.27 15.0334 104.748 14.9478 105.238 14.9478C106.039 14.9478 106.649 15.1557 107.067 15.5716ZM106.254 20.6848C106.625 20.4401 106.9 20.0731 107.091 19.5961V18.3728H104.915C104.294 18.3728 103.839 18.4952 103.552 18.7276C103.265 18.96 103.134 19.278 103.134 19.6939C103.134 20.1221 103.289 20.4523 103.6 20.697C103.911 20.9416 104.341 21.064 104.903 21.064C105.429 21.064 105.884 20.9416 106.254 20.6848Z" fill="white"/>
<path d="M115.903 12.2447V21.5168H115.305V19.9755C115.054 20.4893 114.695 20.8807 114.241 21.1498C113.787 21.419 113.273 21.5658 112.687 21.5658C112.089 21.5658 111.551 21.419 111.073 21.1376C110.594 20.8563 110.212 20.4648 109.937 19.9633C109.662 19.4618 109.53 18.8869 109.53 18.2508C109.53 17.6147 109.662 17.0398 109.937 16.526C110.212 16.0245 110.582 15.633 111.073 15.3517C111.551 15.0703 112.089 14.9358 112.687 14.9358C113.261 14.9358 113.763 15.0703 114.217 15.3517C114.671 15.6208 115.03 16.0122 115.281 16.5015V12.2324H115.903V12.2447ZM114.038 20.6606C114.42 20.4281 114.731 20.0979 114.958 19.682C115.186 19.2661 115.293 18.789 115.293 18.2508C115.293 17.7125 115.186 17.2477 114.958 16.8196C114.731 16.4037 114.432 16.0734 114.038 15.841C113.655 15.6086 113.213 15.4862 112.723 15.4862C112.232 15.4862 111.79 15.6086 111.407 15.841C111.025 16.0734 110.714 16.4037 110.487 16.8196C110.26 17.2355 110.152 17.7125 110.152 18.2508C110.152 18.789 110.26 19.2538 110.487 19.682C110.714 20.0979 111.013 20.4281 111.407 20.6606C111.79 20.893 112.232 21.0153 112.723 21.0153C113.213 21.0153 113.655 20.893 114.038 20.6606Z" fill="white"/>
<path d="M122.479 21.1501C121.989 20.8688 121.618 20.4773 121.331 19.9636C121.056 19.4621 120.913 18.8871 120.913 18.251C120.913 17.615 121.056 17.0523 121.331 16.5385C121.606 16.037 121.989 15.6455 122.479 15.352C122.969 15.0706 123.507 14.9238 124.105 14.9238C124.703 14.9238 125.253 15.0706 125.731 15.352C126.221 15.6333 126.592 16.0247 126.879 16.5385C127.154 17.04 127.297 17.615 127.297 18.251C127.297 18.8871 127.154 19.4498 126.879 19.9636C126.604 20.4651 126.221 20.8565 125.731 21.1501C125.241 21.4315 124.703 21.5783 124.105 21.5783C123.507 21.5783 122.969 21.4315 122.479 21.1501ZM125.432 20.6608C125.815 20.4284 126.125 20.0981 126.353 19.6822C126.58 19.2663 126.687 18.7893 126.687 18.251C126.687 17.7128 126.58 17.248 126.353 16.8199C126.125 16.404 125.827 16.0737 125.432 15.8413C125.049 15.6088 124.607 15.4865 124.117 15.4865C123.627 15.4865 123.184 15.6088 122.802 15.8413C122.419 16.0737 122.108 16.404 121.881 16.8199C121.654 17.2358 121.546 17.7128 121.546 18.251C121.546 18.7893 121.654 19.2541 121.881 19.6822C122.108 20.0981 122.407 20.4284 122.802 20.6608C123.184 20.8932 123.627 21.0156 124.117 21.0156C124.607 21.0156 125.037 20.8932 125.432 20.6608Z" fill="white"/>
<path d="M134.208 15.6578C134.674 16.1348 134.901 16.8199 134.901 17.7128V21.5293H134.292V17.7618C134.292 17.0278 134.112 16.4651 133.754 16.0859C133.395 15.7067 132.881 15.511 132.235 15.511C131.482 15.511 130.896 15.7434 130.466 16.196C130.035 16.6486 129.82 17.2725 129.82 18.0431V21.5171H129.21V14.985H129.796V16.3917C130.011 15.9391 130.346 15.5721 130.776 15.3153C131.207 15.0584 131.733 14.9238 132.319 14.9238C133.108 14.9483 133.742 15.1807 134.208 15.6578Z" fill="white"/>
<path d="M143.725 21.1133C143.569 21.2601 143.378 21.3824 143.139 21.4558C142.912 21.5292 142.661 21.5782 142.41 21.5782C141.86 21.5782 141.429 21.4191 141.13 21.1133C140.832 20.7953 140.676 20.3671 140.676 19.8045V15.5353H139.504V14.9971H140.676V13.5659H141.286V14.9971H143.318V15.5353H141.286V19.7311C141.286 20.1592 141.382 20.4772 141.585 20.6974C141.788 20.9176 142.075 21.0277 142.47 21.0277C142.864 21.0277 143.199 20.9054 143.462 20.6607L143.725 21.1133Z" fill="white"/>
<path d="M150.432 15.6575C150.899 16.1345 151.126 16.8196 151.126 17.7125V21.529H150.516V17.7615C150.516 17.0275 150.337 16.4648 149.978 16.0856C149.619 15.7064 149.105 15.5107 148.46 15.5107C147.706 15.5107 147.121 15.7431 146.69 16.1957C146.26 16.6483 146.044 17.2722 146.044 18.0428V21.5168H145.435V12.2446H146.044V16.3547C146.26 15.9021 146.594 15.5596 147.025 15.315C147.455 15.0703 147.969 14.948 148.555 14.948C149.344 14.948 149.978 15.1804 150.432 15.6575Z" fill="white"/>
<path d="M159.053 18.4101H153.565C153.577 18.9238 153.708 19.3764 153.947 19.7679C154.187 20.1593 154.509 20.4651 154.904 20.6853C155.31 20.9055 155.765 21.0156 156.267 21.0156C156.685 21.0156 157.068 20.9422 157.427 20.7832C157.785 20.6241 158.072 20.4039 158.311 20.0981L158.67 20.514C158.395 20.8566 158.048 21.1134 157.63 21.2969C157.211 21.4804 156.757 21.566 156.267 21.566C155.633 21.566 155.059 21.4192 154.569 21.1379C154.067 20.8565 153.684 20.4651 153.397 19.9636C153.111 19.4621 152.979 18.8871 152.979 18.251C152.979 17.615 153.111 17.0523 153.374 16.5385C153.637 16.037 154.007 15.6455 154.462 15.352C154.928 15.0706 155.442 14.9238 156.028 14.9238C156.602 14.9238 157.128 15.0584 157.582 15.3397C158.036 15.6211 158.407 16.0125 158.67 16.514C158.933 17.0156 159.065 17.5783 159.065 18.2143L159.053 18.4101ZM154.808 15.8046C154.45 16.0125 154.163 16.2939 153.947 16.6731C153.732 17.04 153.613 17.4682 153.577 17.933H158.467C158.443 17.4682 158.323 17.0523 158.096 16.6853C157.881 16.3183 157.582 16.037 157.223 15.8168C156.865 15.6088 156.458 15.4988 156.016 15.4988C155.573 15.4988 155.167 15.5966 154.808 15.8046Z" fill="white"/>
<path d="M65.3524 40.8686H58.0472L56.6005 44.3304H53.8027L60.3786 29.3701H63.0568L69.6566 44.3304H66.811L65.3524 40.8686ZM64.4557 38.6912L61.6938 32.1591L58.9558 38.6912H64.4557Z" fill="white"/>
<path d="M80.3573 33.5167C81.2181 34.006 81.8877 34.6787 82.3779 35.5717C82.8681 36.4524 83.1072 37.4677 83.1072 38.6298C83.1072 39.7797 82.8681 40.8072 82.3779 41.7001C81.8877 42.5931 81.2181 43.2781 80.3573 43.7674C79.4965 44.2567 78.528 44.4891 77.44 44.4891C75.9335 44.4891 74.7499 43.9754 73.8651 42.9478V48.4769H71.2587V32.9173H73.7455V34.4096C74.176 33.8714 74.714 33.4677 75.3477 33.1864C75.9814 32.9173 76.6748 32.7827 77.452 32.7827C78.528 32.7949 79.4965 33.0396 80.3573 33.5167ZM79.5204 41.2108C80.1421 40.5503 80.453 39.694 80.453 38.6298C80.453 37.5656 80.1421 36.6971 79.5204 36.0488C78.8987 35.3882 78.1095 35.0702 77.1531 35.0702C76.5313 35.0702 75.9574 35.217 75.4672 35.5105C74.9651 35.8041 74.5705 36.22 74.2716 36.7582C73.9847 37.2965 73.8292 37.9203 73.8292 38.642C73.8292 39.3515 73.9727 39.9754 74.2716 40.5258C74.5586 41.0641 74.9651 41.48 75.4672 41.7735C75.9694 42.0671 76.5313 42.2139 77.1531 42.2139C78.1095 42.2017 78.8987 41.8714 79.5204 41.2108Z" fill="white"/>
<path d="M94.6808 33.5167C95.5416 34.006 96.2112 34.6787 96.7014 35.5717C97.1916 36.4524 97.4307 37.4677 97.4307 38.6298C97.4307 39.7797 97.1916 40.8072 96.7014 41.7001C96.2112 42.5931 95.5416 43.2781 94.6808 43.7674C93.82 44.2567 92.8515 44.4891 91.7635 44.4891C90.257 44.4891 89.0734 43.9754 88.1886 42.9478V48.4769H85.5822V32.9173H88.069V34.4096C88.4995 33.8714 89.0375 33.4677 89.6712 33.1864C90.3048 32.9173 90.9983 32.7827 91.7754 32.7827C92.8515 32.7949 93.8319 33.0396 94.6808 33.5167ZM93.8439 41.2108C94.4656 40.5503 94.7764 39.694 94.7764 38.6298C94.7764 37.5656 94.4656 36.6971 93.8439 36.0488C93.2221 35.3882 92.433 35.0702 91.4765 35.0702C90.8548 35.0702 90.2809 35.217 89.7907 35.5105C89.2886 35.8041 88.894 36.22 88.5951 36.7582C88.3082 37.2965 88.1527 37.9203 88.1527 38.642C88.1527 39.3515 88.2962 39.9754 88.5951 40.5258C88.8821 41.0641 89.2886 41.48 89.7907 41.7735C90.2929 42.0671 90.8548 42.2139 91.4765 42.2139C92.433 42.2017 93.2341 41.8714 93.8439 41.2108Z" fill="white"/>
<path d="M107.187 44.0489C106.135 43.7187 105.31 43.2905 104.688 42.7401L105.633 40.5872C106.23 41.0765 106.96 41.4679 107.833 41.7737C108.705 42.0795 109.578 42.2385 110.451 42.2385C111.539 42.2385 112.352 42.055 112.878 41.7003C113.416 41.3456 113.679 40.8685 113.679 40.2936C113.679 39.8654 113.524 39.5107 113.225 39.2416C112.926 38.9602 112.543 38.7523 112.089 38.5933C111.635 38.4343 111.001 38.263 110.212 38.055C109.1 37.7859 108.191 37.5168 107.51 37.2477C106.816 36.9786 106.23 36.5505 105.74 35.9755C105.25 35.4006 104.999 34.6177 104.999 33.6391C104.999 32.8073 105.214 32.0612 105.657 31.3884C106.099 30.7156 106.757 30.1774 107.641 29.7737C108.526 29.37 109.602 29.1743 110.893 29.1743C111.79 29.1743 112.663 29.2844 113.524 29.5168C114.385 29.7492 115.126 30.0673 115.76 30.4954L114.899 32.6483C114.253 32.2691 113.595 31.9755 112.89 31.7676C112.197 31.5719 111.515 31.474 110.869 31.474C109.793 31.474 109.004 31.6575 108.478 32.0245C107.952 32.3914 107.701 32.8807 107.701 33.5046C107.701 33.9327 107.845 34.2752 108.155 34.5566C108.454 34.8257 108.837 35.0459 109.291 35.1927C109.746 35.3517 110.379 35.5229 111.168 35.7309C112.256 35.9878 113.141 36.2569 113.847 36.526C114.54 36.8073 115.138 37.2232 115.628 37.7982C116.118 38.3731 116.369 39.1315 116.369 40.1101C116.369 40.9419 116.154 41.6881 115.712 42.3486C115.269 43.0214 114.612 43.5474 113.715 43.9511C112.818 44.3547 111.742 44.5505 110.463 44.5505C109.327 44.5505 108.239 44.3792 107.187 44.0489Z" fill="white"/>
<path d="M125.516 43.7186C125.205 43.9754 124.834 44.1712 124.404 44.2935C123.961 44.4158 123.507 44.4892 123.017 44.4892C121.797 44.4892 120.841 44.1589 120.171 43.5106C119.502 42.8501 119.167 41.8959 119.167 40.6482V35.1559H117.326V33.003H119.167V30.3975H121.773V33.003H124.763V35.1436H121.773V40.5748C121.773 41.1253 121.905 41.5534 122.168 41.847C122.431 42.1406 122.814 42.2874 123.316 42.2874C123.902 42.2874 124.392 42.1283 124.774 41.8225L125.516 43.7186Z" fill="white"/>
<path d="M129.258 43.7307C128.349 43.2291 127.644 42.5319 127.142 41.6512C126.628 40.7582 126.377 39.7551 126.377 38.6298C126.377 37.5044 126.628 36.5013 127.142 35.6206C127.644 34.7399 128.361 34.0426 129.258 33.5533C130.167 33.0518 131.183 32.8071 132.307 32.8071C133.443 32.8071 134.471 33.0518 135.38 33.5533C136.288 34.0548 136.994 34.7399 137.496 35.6206C137.998 36.5013 138.261 37.5044 138.261 38.6298C138.261 39.7551 138.01 40.7582 137.496 41.6512C136.982 42.5441 136.276 43.2414 135.38 43.7307C134.471 44.2322 133.455 44.4768 132.307 44.4768C131.171 44.4768 130.155 44.2322 129.258 43.7307ZM134.686 41.2108C135.308 40.5502 135.631 39.694 135.631 38.6298C135.631 37.5655 135.32 36.697 134.686 36.0487C134.064 35.3882 133.263 35.0701 132.307 35.0701C131.35 35.0701 130.561 35.4004 129.94 36.0487C129.318 36.7093 129.007 37.5655 129.007 38.6298C129.007 39.694 129.318 40.5625 129.94 41.2108C130.561 41.8713 131.35 42.1894 132.307 42.1894C133.263 42.2016 134.064 41.8713 134.686 41.2108Z" fill="white"/>
<path d="M147.216 32.7949V35.3393C146.989 35.3026 146.786 35.2781 146.606 35.2781C145.59 35.2781 144.801 35.5839 144.227 36.1833C143.653 36.7949 143.366 37.6634 143.366 38.801V44.3301H140.76V32.9172H143.247V34.5931C144 33.3943 145.327 32.7949 147.216 32.7949Z" fill="white"/>
<path d="M159.77 39.486H151.018C151.174 40.3301 151.568 40.9906 152.214 41.4799C152.86 41.9692 153.661 42.2139 154.629 42.2139C155.849 42.2139 156.865 41.798 157.654 40.9784L159.053 42.6175C158.551 43.2291 157.917 43.694 157.152 44.012C156.387 44.3301 155.526 44.4768 154.557 44.4768C153.338 44.4768 152.25 44.2322 151.317 43.7307C150.385 43.2291 149.667 42.5319 149.153 41.6512C148.639 40.7582 148.388 39.7551 148.388 38.6298C148.388 37.5166 148.639 36.5135 149.129 35.6328C149.619 34.7398 150.313 34.0426 151.186 33.5533C152.058 33.0518 153.051 32.8071 154.151 32.8071C155.239 32.8071 156.207 33.0518 157.068 33.5411C157.929 34.0304 158.599 34.7276 159.077 35.6083C159.555 36.5013 159.794 37.5288 159.794 38.6909C159.806 38.8744 159.794 39.1435 159.77 39.486ZM152.047 35.694C151.473 36.1955 151.114 36.8683 150.994 37.7123H157.319C157.212 36.8805 156.865 36.22 156.291 35.7062C155.717 35.1924 155.012 34.9356 154.163 34.9356C153.338 34.9356 152.632 35.1802 152.047 35.694Z" fill="white"/>
</svg>
