<svg width="180" height="56" viewBox="0 0 180 56" fill="none" xmlns="http://www.w3.org/2000/svg">
<path d="M173.042 56H6.95849C3.12056 56 0 52.8196 0 48.8807V7.11927C0 3.19266 3.12056 0 6.95849 0H173.042C176.879 0 180 3.19266 180 7.11927V48.893C180 52.8196 176.891 56 173.042 56Z" fill="black"/>
<path d="M58.9917 33.8351H61.5025V39.6577C60.7732 40.2571 59.9124 40.7097 58.932 41.0399C57.9516 41.358 56.9472 41.517 55.9071 41.517C54.4484 41.517 53.1332 41.199 51.9735 40.5507C50.8018 39.9023 49.8811 39.0094 49.2236 37.8718C48.554 36.7341 48.2192 35.4375 48.2192 34.0063C48.2192 32.5751 48.554 31.2907 49.2236 30.1409C49.8931 29.0032 50.8137 28.1103 51.9854 27.462C53.1571 26.8136 54.4843 26.4956 55.9549 26.4956C57.1505 26.4956 58.2385 26.7036 59.2189 27.1072C60.1993 27.5109 61.0243 28.0981 61.6938 28.8809L60.02 30.5568C58.932 29.4436 57.6168 28.8809 56.0864 28.8809C55.0821 28.8809 54.1854 29.1011 53.4082 29.5292C52.6311 29.9574 52.0093 30.569 51.567 31.3519C51.1246 32.1347 50.9094 33.0277 50.9094 34.0185C50.9094 34.9971 51.1246 35.8656 51.567 36.6485C52.0093 37.4314 52.6191 38.043 53.4082 38.4834C54.1854 38.9237 55.0821 39.1562 56.0744 39.1562C57.1864 39.1562 58.1668 38.9115 59.0157 38.41V33.8351H58.9917Z" fill="white"/>
<path d="M66.6676 40.7224C65.7829 40.2331 65.0894 39.5603 64.5992 38.6918C64.097 37.8233 63.8579 36.8325 63.8579 35.7316C63.8579 34.6307 64.109 33.6521 64.5992 32.7836C65.1014 31.9151 65.7829 31.2423 66.6676 30.753C67.5524 30.2637 68.5447 30.019 69.6447 30.019C70.7566 30.019 71.7609 30.2637 72.6457 30.753C73.5304 31.2423 74.2239 31.9151 74.7141 32.7836C75.2163 33.6521 75.4554 34.6307 75.4554 35.7316C75.4554 36.8325 75.2043 37.8111 74.7141 38.6918C74.212 39.5603 73.5304 40.2453 72.6457 40.7224C71.7609 41.2117 70.7566 41.4564 69.6447 41.4564C68.5447 41.4564 67.5524 41.2117 66.6676 40.7224ZM71.9761 38.2637C72.5859 37.6276 72.8968 36.7836 72.8968 35.7316C72.8968 34.6918 72.5859 33.8478 71.9761 33.1995C71.3664 32.5634 70.5892 32.2331 69.6447 32.2331C68.7002 32.2331 67.935 32.5512 67.3252 33.1995C66.7154 33.8356 66.4165 34.6796 66.4165 35.7316C66.4165 36.7713 66.7154 37.6154 67.3252 38.2637C67.935 38.8998 68.7002 39.2301 69.6447 39.2301C70.5892 39.2178 71.3544 38.8998 71.9761 38.2637Z" fill="white"/>
<path d="M79.8313 40.7224C78.9465 40.2331 78.2531 39.5603 77.7629 38.6918C77.2607 37.8233 77.0216 36.8325 77.0216 35.7316C77.0216 34.6307 77.2727 33.6521 77.7629 32.7836C78.265 31.9151 78.9465 31.2423 79.8313 30.753C80.7161 30.2637 81.7084 30.019 82.8084 30.019C83.9203 30.019 84.9246 30.2637 85.8094 30.753C86.6941 31.2423 87.3876 31.9151 87.8778 32.7836C88.38 33.6521 88.6191 34.6307 88.6191 35.7316C88.6191 36.8325 88.368 37.8111 87.8778 38.6918C87.3756 39.5603 86.6941 40.2453 85.8094 40.7224C84.9246 41.2117 83.9203 41.4564 82.8084 41.4564C81.7084 41.4564 80.7161 41.2117 79.8313 40.7224ZM85.1398 38.2637C85.7496 37.6276 86.0605 36.7836 86.0605 35.7316C86.0605 34.6918 85.7496 33.8478 85.1398 33.1995C84.5301 32.5634 83.7529 32.2331 82.8084 32.2331C81.8638 32.2331 81.0987 32.5512 80.4889 33.1995C79.8791 33.8356 79.5802 34.6796 79.5802 35.7316C79.5802 36.7713 79.8791 37.6154 80.4889 38.2637C81.0987 38.8998 81.8638 39.2301 82.8084 39.2301C83.7529 39.2178 84.5181 38.8998 85.1398 38.2637Z" fill="white"/>
<path d="M101.89 30.1531V39.6087C101.89 43.5353 99.9297 45.4925 96.0081 45.4925C94.9559 45.4925 93.9636 45.358 93.031 45.0888C92.0864 44.8197 91.3212 44.4283 90.6995 43.9145L91.8473 41.9573C92.3256 42.361 92.9234 42.6791 93.6527 42.9237C94.382 43.1683 95.1233 43.2907 95.8646 43.2907C97.0602 43.2907 97.945 43.0093 98.4949 42.4589C99.0569 41.8962 99.3319 41.0521 99.3319 39.9145V39.3274C98.9015 39.8167 98.3634 40.1836 97.7417 40.4283C97.12 40.6729 96.4265 40.8075 95.6852 40.8075C94.657 40.8075 93.7125 40.5873 92.8755 40.1347C92.0386 39.6821 91.381 39.046 90.8908 38.2265C90.4126 37.4069 90.1615 36.465 90.1615 35.413C90.1615 34.361 90.4006 33.4191 90.8908 32.5995C91.3691 31.78 92.0386 31.1561 92.8755 30.7158C93.7125 30.2754 94.6451 30.043 95.6852 30.043C96.4744 30.043 97.1917 30.1775 97.8374 30.4344C98.483 30.7035 99.021 31.1072 99.4634 31.6454V30.1653H101.89V30.1531ZM98.4471 37.7005C99.0688 37.1133 99.3797 36.3427 99.3797 35.3885C99.3797 34.4589 99.0688 33.7005 98.4471 33.1133C97.8254 32.5261 97.0363 32.2326 96.0678 32.2326C95.0874 32.2326 94.2864 32.5261 93.6647 33.1133C93.0429 33.7005 92.7321 34.4589 92.7321 35.3885C92.7321 36.3304 93.0429 37.1011 93.6647 37.7005C94.2864 38.2876 95.0874 38.5934 96.0678 38.5934C97.0363 38.5934 97.8374 38.2998 98.4471 37.7005Z" fill="white"/>
<path d="M105.238 25.8105H107.785V41.309H105.238V25.8105Z" fill="white"/>
<path d="M121.343 36.5629H112.794C112.95 37.3824 113.332 38.0308 113.966 38.5201C114.6 38.9971 115.389 39.2418 116.322 39.2418C117.517 39.2418 118.51 38.8381 119.287 38.0308L120.65 39.6332C120.159 40.2326 119.538 40.6852 118.796 40.991C118.043 41.2968 117.206 41.4558 116.262 41.4558C115.066 41.4558 114.014 41.2112 113.093 40.7219C112.185 40.2326 111.479 39.5598 110.977 38.6913C110.475 37.8228 110.236 36.832 110.236 35.7311C110.236 34.6424 110.475 33.6638 110.965 32.7953C111.443 31.9268 112.113 31.2418 112.974 30.7647C113.835 30.2754 114.791 30.0308 115.867 30.0308C116.931 30.0308 117.876 30.2754 118.713 30.7525C119.55 31.2295 120.207 31.9023 120.674 32.7831C121.14 33.6516 121.379 34.6546 121.379 35.8045C121.379 35.9757 121.367 36.2326 121.343 36.5629ZM113.799 32.8565C113.237 33.3457 112.89 34.0063 112.771 34.8259H118.952C118.844 34.0185 118.51 33.3702 117.948 32.8687C117.386 32.3672 116.692 32.1225 115.867 32.1225C115.054 32.1225 114.361 32.3672 113.799 32.8565Z" fill="white"/>
<path d="M138.823 27.3153C139.744 27.7312 140.449 28.3306 140.939 29.1134C141.429 29.8963 141.669 30.8137 141.669 31.8902C141.669 32.9422 141.429 33.8718 140.939 34.6547C140.449 35.4376 139.744 36.0492 138.823 36.4651C137.902 36.881 136.826 37.089 135.583 37.089H132.355V41.3091H129.7V26.6914H135.583C136.826 26.6914 137.902 26.8994 138.823 27.3153ZM138.094 34.0431C138.691 33.5416 138.99 32.8198 138.99 31.8902C138.99 30.9605 138.691 30.2388 138.094 29.7373C137.496 29.2357 136.623 28.9911 135.463 28.9911H132.367V34.8015H135.463C136.623 34.7893 137.496 34.5446 138.094 34.0431Z" fill="white"/>
<path d="M144.275 25.8105H146.822V41.309H144.275V25.8105Z" fill="white"/>
<path d="M158.025 31.2051C158.873 31.9879 159.304 33.1745 159.304 34.7647V41.2968H156.901V39.939C156.59 40.4283 156.147 40.7953 155.562 41.0522C154.988 41.3091 154.282 41.4436 153.469 41.4436C152.656 41.4436 151.939 41.2968 151.329 41.0155C150.719 40.7341 150.241 40.3305 149.906 39.8289C149.572 39.3152 149.404 38.7525 149.404 38.1042C149.404 37.1011 149.763 36.2938 150.492 35.6944C151.222 35.0827 152.369 34.7892 153.936 34.7892H156.757V34.6179C156.757 33.835 156.53 33.2357 156.076 32.8198C155.621 32.4038 154.94 32.1959 154.043 32.1959C153.433 32.1959 152.824 32.2938 152.238 32.4895C151.64 32.6852 151.15 32.9543 150.743 33.309L149.739 31.413C150.313 30.9727 150.994 30.6301 151.795 30.3855C152.596 30.1531 153.445 30.0308 154.342 30.0308C155.944 30.0308 157.176 30.4222 158.025 31.2051ZM155.693 39.1072C156.195 38.8136 156.542 38.3855 156.745 37.8228V36.5262H154.115C152.644 36.5262 151.915 37.0155 151.915 38.0063C151.915 38.4834 152.094 38.8503 152.465 39.1317C152.836 39.413 153.338 39.5476 153.995 39.5476C154.629 39.5476 155.203 39.4008 155.693 39.1072Z" fill="white"/>
<path d="M172.563 30.1533L167.458 42.2022C166.98 43.4133 166.406 44.2695 165.724 44.7588C165.043 45.2481 164.218 45.505 163.249 45.505C162.699 45.505 162.173 45.4194 161.635 45.2359C161.109 45.0524 160.667 44.8078 160.332 44.4897L161.348 42.5692C161.588 42.8016 161.886 42.9974 162.221 43.1319C162.556 43.2665 162.891 43.3399 163.226 43.3399C163.68 43.3399 164.051 43.2175 164.337 42.9851C164.624 42.7527 164.899 42.349 165.139 41.7986L165.318 41.3582L160.559 30.1656H163.214L166.645 38.4102L170.088 30.1656H172.563V30.1533Z" fill="white"/>
<path d="M43.3172 27.2906L36.4543 23.2417L30.811 28.8197L35.9641 33.9206L43.3052 29.5781C43.7117 29.3457 43.9509 28.9053 43.9509 28.4282C43.9628 27.9512 43.7117 27.523 43.3172 27.2906Z" fill="#FFD109"/>
<path d="M35.2947 22.5566L27.7384 18.0917L11.203 9.41895L29.8905 27.9021L35.2947 22.5566Z" fill="#06EF79"/>
<path d="M11.478 47.9387L27.7743 38.7521L34.8045 34.6053L29.8905 29.7368L11.478 47.9387Z" fill="#F93646"/>
<path d="M10.103 10.165L10.0791 47.4861L28.9579 28.8195L10.103 10.165Z" fill="#05D5FB"/>
<path d="M52.7865 18.5687C52.2126 18.5687 51.6746 18.4463 51.1724 18.1895C50.6703 17.9326 50.2399 17.5901 49.8692 17.1497C49.4986 16.7216 49.2116 16.2323 49.0084 15.6818C48.8051 15.1436 48.6975 14.5809 48.6975 13.9937C48.6975 13.3821 48.8051 12.8072 49.0084 12.269C49.2116 11.7307 49.4986 11.2414 49.8692 10.8255C50.2399 10.4096 50.6703 10.0794 51.1605 9.83472C51.6626 9.59007 52.2007 9.47998 52.7865 9.47998C53.6354 9.47998 54.3289 9.66347 54.8908 10.0182C55.4408 10.3852 55.8593 10.85 56.1342 11.4372L55.2854 12.0488C55.0343 11.5228 54.6756 11.1436 54.2332 10.8867C53.7908 10.6298 53.3006 10.5075 52.7626 10.5075C52.3202 10.5075 51.9137 10.6054 51.555 10.8011C51.1964 10.9968 50.8855 11.2537 50.6225 11.5962C50.3594 11.9265 50.1681 12.3057 50.0246 12.7216C49.8931 13.1375 49.8214 13.5778 49.8214 14.0304C49.8214 14.5075 49.8931 14.9601 50.0486 15.3882C50.204 15.8164 50.4192 16.1833 50.6942 16.5136C50.9692 16.8439 51.304 17.0885 51.6746 17.272C52.0452 17.4555 52.4398 17.5534 52.8702 17.5534C53.3724 17.5534 53.8506 17.4188 54.305 17.1619C54.7593 16.9051 55.1897 16.5014 55.5843 15.9632V17.1375C54.7952 18.0916 53.8626 18.5687 52.7865 18.5687ZM55.4527 14.8989H53.5637V14.0427H56.3853V18.5197H55.4527V14.8989Z" fill="white"/>
<path d="M64.0253 17.5043V18.5196H58.0712V9.54102H63.9058V10.5563H59.1831V13.4554H63.296V14.3973H59.1831V17.4921H64.0253V17.5043Z" fill="white"/>
<path d="M71.8685 10.5563H68.8436V18.5196H67.7317V10.5563H64.7068V9.54102H71.8685V10.5563Z" fill="white"/>
<path d="M75.8857 18.5074V9.54102H76.9977V18.5074H75.8857Z" fill="white"/>
<path d="M80.202 11.645V18.5196H79.0901V9.54102H80.0227L85.379 16.5502V9.55325H86.491V18.5074H85.4866L80.202 11.645Z" fill="white"/>
<path d="M95.2787 18.5687C94.657 18.5687 94.107 18.4464 93.6048 18.1895C93.1027 17.9326 92.6722 17.5901 92.3016 17.162C91.931 16.7338 91.656 16.2445 91.4527 15.6941C91.2495 15.1558 91.1538 14.5932 91.1538 14.0182C91.1538 13.4188 91.2614 12.8439 91.4647 12.3057C91.6799 11.7675 91.9668 11.2782 92.3375 10.85C92.7081 10.4219 93.1505 10.0916 93.6526 9.83475C94.1548 9.5901 94.7048 9.46777 95.2906 9.46777C95.9124 9.46777 96.4623 9.60233 96.9645 9.85921C97.4667 10.1161 97.8971 10.4708 98.2558 10.9112C98.6144 11.3516 98.9014 11.8409 99.0927 12.3791C99.2959 12.9173 99.3916 13.4678 99.3916 14.0305C99.3916 14.6299 99.284 15.2048 99.0807 15.743C98.8775 16.2812 98.5905 16.7705 98.2079 17.1987C97.8373 17.6268 97.3949 17.9571 96.8928 18.2017C96.4145 18.4586 95.8645 18.5687 95.2787 18.5687ZM92.2777 14.0305C92.2777 14.4831 92.3494 14.9234 92.4929 15.3516C92.6364 15.7797 92.8396 16.1589 93.1027 16.4769C93.3657 16.8072 93.6885 17.0641 94.0592 17.2598C94.4298 17.4555 94.8363 17.5534 95.2906 17.5534C95.7569 17.5534 96.1754 17.4555 96.546 17.2476C96.9167 17.0396 97.2275 16.7705 97.4906 16.4402C97.7536 16.0977 97.9449 15.7185 98.0884 15.3026C98.2199 14.8867 98.2916 14.4586 98.2916 14.0305C98.2916 13.5779 98.2199 13.1375 98.0764 12.7216C97.9329 12.3057 97.7297 11.9265 97.4547 11.5962C97.1917 11.2659 96.8688 10.9968 96.4982 10.8133C96.1276 10.6299 95.7211 10.532 95.2787 10.532C94.8124 10.532 94.3939 10.6299 94.0233 10.8256C93.6526 11.0213 93.3418 11.2904 93.0787 11.6329C92.8157 11.9754 92.6244 12.3424 92.4809 12.7583C92.3494 13.162 92.2777 13.5901 92.2777 14.0305Z" fill="white"/>
<path d="M102.07 11.645V18.5196H100.958V9.54102H101.89L107.247 16.5502V9.55325H108.359V18.5074H107.342L102.07 11.645Z" fill="white"/>
</svg>
