<svg width="34" height="34" viewBox="0 0 34 34" fill="none" xmlns="http://www.w3.org/2000/svg">
<path d="M31.8281 11.1244C31.6963 9.39611 30.3784 7.18041 29.0604 6.11688C27.5784 5.02846 26.0385 4.02251 24.4477 3.10353C22.8689 2.15959 21.2412 1.30163 19.5714 0.533321C18.6795 0.166297 17.723 -0.0145993 16.7599 0.00155381C15.7963 -0.018867 14.839 0.16219 13.9483 0.533321C12.2788 1.30217 10.6511 2.16012 9.07199 3.10353C6.52401 4.65452 4.45927 6.11688 4.45927 6.11688C3.40289 7.00869 2.59612 8.14998 2.1027 9.42726C1.98231 9.73892 2.22225 10.0606 2.55636 10.0606H4.35877C4.73045 10.0606 5.06629 9.85101 5.26786 9.53874C5.63002 8.97771 6.07641 8.46959 6.59591 8.03403C6.59591 8.03403 8.30072 6.8349 10.4045 5.56309C11.7083 4.78949 13.0523 4.08597 14.4308 3.45552C15.1663 3.15119 15.9567 3.00272 16.7522 3.01947C17.5475 3.00622 18.3372 3.15456 19.0737 3.45552C20.4524 4.08553 21.7964 4.78906 23.1 5.56309C24.4135 6.31666 25.6849 7.14153 26.9086 8.03403C27.9968 8.90613 29.0849 10.723 29.1938 12.1402C29.1938 12.1402 29.4477 14.2477 29.4839 16.7441C29.4817 18.2858 29.397 19.8263 29.23 21.359C28.9769 22.9637 28.1523 24.4224 26.9086 25.4651C26.9086 25.4651 25.2038 26.7006 23.1 27.9724C21.7962 28.746 20.4522 29.4495 19.0737 30.08C18.3382 30.3843 17.5478 30.5327 16.7522 30.516C15.9577 30.5327 15.168 30.3881 14.4308 30.0909C13.0521 29.4608 11.7081 28.7573 10.4045 27.9833C8.30072 26.7478 6.59591 25.476 6.59591 25.476C6.14072 25.1112 5.68553 24.5811 5.29937 23.9841C5.10084 23.6771 4.76861 23.4748 4.40306 23.4748H2.56869C2.23032 23.4748 1.99099 23.8038 2.12173 24.1159C2.65783 25.3957 3.55855 26.6607 4.45927 27.3876C4.45927 27.3876 6.52401 28.9386 9.07199 30.4452C10.6508 31.3892 12.2785 32.2471 13.9483 33.0154C14.8412 33.3779 15.7976 33.5543 16.7599 33.5339C17.7234 33.5543 18.6807 33.3733 19.5714 33.0021C21.2409 32.2333 22.8687 31.3753 24.4477 30.4319C26.9957 28.8809 29.0604 27.3743 29.0604 27.3743C30.5667 26.1027 31.5655 24.3238 31.872 22.3668C32.0742 20.4977 32.1768 18.6191 32.1795 16.7389C32.1356 13.6946 31.8281 11.1244 31.8281 11.1244Z" fill="url(#paint0_linear_68_14498)"/>
<path d="M1.34033 13.0807C1.34033 12.7103 1.64034 12.41 2.01042 12.41H12.3968C12.7669 12.41 13.0669 12.7103 13.0669 13.0807V15.0929C13.0669 15.4633 12.7669 15.7636 12.3968 15.7636H1.34033V13.0807Z" fill="#0066B3"/>
<path d="M1.34009 17.7754H22.4479C22.818 17.7754 23.118 18.0757 23.118 18.4461V20.4582C23.118 20.8287 22.818 21.1289 22.4479 21.1289H2.01018C1.6401 21.1289 1.34009 20.8287 1.34009 20.4582V17.7754Z" fill="#EE2F53"/>
<defs>
<linearGradient id="paint0_linear_68_14498" x1="17.0323" y1="0" x2="17.0323" y2="33.5355" gradientUnits="userSpaceOnUse">
<stop stop-color="#0066B3"/>
<stop offset="0.354167" stop-color="#0066B3"/>
<stop offset="0.6875" stop-color="#EE2F53"/>
<stop offset="1" stop-color="#EE2F53"/>
</linearGradient>
</defs>
</svg>
