<svg width="14" height="22" viewBox="0 0 14 22" fill="none" xmlns="http://www.w3.org/2000/svg">
<path d="M12.3533 0.000378825C12.6743 -0.00677274 12.9895 0.0874852 13.2552 0.270193C13.5208 0.452901 13.7236 0.715029 13.8354 1.0199C13.9472 1.32477 13.9625 1.65731 13.8791 1.97138C13.7957 2.28545 13.6178 2.56526 13.3701 2.77216L3.91797 10.9747L13.3701 19.1744C13.5414 19.3019 13.6849 19.4639 13.7916 19.6503C13.8983 19.8366 13.9658 20.0434 13.99 20.2574C14.0142 20.4714 13.9944 20.6882 13.9321 20.8941C13.8697 21.1001 13.766 21.2908 13.6276 21.4543C13.4891 21.6178 13.3187 21.7504 13.1273 21.8442C12.9358 21.9379 12.7272 21.9905 12.5147 21.9988C12.3022 22.0071 12.0903 21.971 11.8923 21.8925C11.6942 21.814 11.5143 21.695 11.3638 21.5428L0.542014 12.1635C0.372071 12.0166 0.235607 11.8343 0.142033 11.6288C0.0484571 11.4232 9.53674e-07 11.1996 9.53674e-07 10.9733C9.53674e-07 10.7469 0.0484571 10.5233 0.142033 10.3178C0.235607 10.1123 0.372071 9.92973 0.542014 9.78282L11.3638 0.394543C11.6372 0.148572 11.9878 0.00873223 12.3533 1.78695e-05V0.000378825Z" fill="white"/>
</svg>
