<svg width="14" height="8" viewBox="0 0 14 8" fill="none" xmlns="http://www.w3.org/2000/svg">
<path fill-rule="evenodd" clip-rule="evenodd" d="M13.781 0.245851C13.9212 0.39065 14 0.586942 14 0.79168C14 0.996315 13.9212 1.19271 13.781 1.33751L7.53902 7.77415C7.3986 7.91874 7.20814 8 7.0097 8C6.81115 8 6.6208 7.91874 6.48038 7.77415L0.238413 1.33751C0.164808 1.26676 0.105784 1.18148 0.0648375 1.08674C0.0238895 0.991989 0.00191784 0.889723 0.000120163 0.786016C-0.00167751 0.682308 0.016799 0.579322 0.0545511 0.483132C0.0922022 0.386942 0.148231 0.29961 0.219439 0.226283C0.290547 0.152853 0.375237 0.095078 0.468517 0.056252C0.561797 0.017323 0.661669 -0.00172997 0.762239 0.000123501C0.862809 0.00197697 0.961984 0.0246344 1.05387 0.0668592C1.14575 0.109084 1.22844 0.169949 1.29705 0.245851L7.0097 6.13666L12.7223 0.245851C12.8628 0.101154 13.0531 0.019897 13.2517 0.019897C13.4501 0.019897 13.6406 0.101154 13.781 0.245851Z" fill="#714EFF"/>
</svg>
