<svg width="8" height="14" viewBox="0 0 8 14" fill="none" xmlns="http://www.w3.org/2000/svg">
<path fill-rule="evenodd" clip-rule="evenodd" d="M0.245851 0.219018C0.39065 0.0787984 0.586942 0 0.79168 0C0.996315 0 1.19271 0.0787984 1.33751 0.219018L7.77415 6.46098C7.91874 6.6014 8 6.79186 8 6.9903C8 7.18885 7.91874 7.3792 7.77415 7.51962L1.33751 13.7616C1.26676 13.8352 1.18148 13.8942 1.08674 13.9352C0.991989 13.9761 0.889723 13.9981 0.786016 13.9999C0.682308 14.0017 0.579322 13.9832 0.483132 13.9454C0.386942 13.9078 0.29961 13.8518 0.226283 13.7806C0.152853 13.7095 0.095078 13.6248 0.056252 13.5315C0.017323 13.4382 -0.00172997 13.3383 0.000123501 13.2378C0.00197697 13.1372 0.0246344 13.038 0.0668592 12.9461C0.109084 12.8543 0.169949 12.7716 0.245851 12.7029L6.13666 6.9903L0.245851 1.27766C0.101154 1.13724 0.019897 0.946881 0.019897 0.748337C0.019897 0.549892 0.101154 0.359437 0.245851 0.219018Z" fill="#CECECE"/>
</svg>
