<svg width="18" height="22" viewBox="0 0 18 22" fill="none" xmlns="http://www.w3.org/2000/svg">
<path d="M15.9987 6C15.7335 6 15.4792 6.10535 15.2917 6.29288C15.1041 6.48041 14.9988 6.73475 14.9988 6.99995V18.1904C14.9701 18.696 14.7428 19.1699 14.3663 19.5087C13.9898 19.8475 13.4948 20.0238 12.9889 19.9993H5.00929C4.50341 20.0238 4.00832 19.8475 3.63186 19.5087C3.2554 19.1699 3.02807 18.696 2.99939 18.1904V6.99995C2.99939 6.73475 2.89404 6.48041 2.70651 6.29288C2.51898 6.10535 2.26464 6 1.99944 6C1.73423 6 1.47989 6.10535 1.29237 6.29288C1.10484 6.48041 0.999489 6.73475 0.999489 6.99995V18.1904C1.02803 19.2266 1.46605 20.2092 2.21761 20.9231C2.96917 21.637 3.97301 22.0239 5.00929 21.9992H12.9889C14.0252 22.0239 15.029 21.637 15.7806 20.9231C16.5321 20.2092 16.9701 19.2266 16.9987 18.1904V6.99995C16.9987 6.73475 16.8933 6.48041 16.7058 6.29288C16.5183 6.10535 16.2639 6 15.9987 6Z" fill="#3E4155"/>
<path d="M16.9991 2.99985H12.9993V0.999949C12.9993 0.734746 12.894 0.480405 12.7065 0.292878C12.5189 0.105351 12.2646 0 11.9994 0H5.9997C5.73449 0 5.48015 0.105351 5.29263 0.292878C5.1051 0.480405 4.99975 0.734746 4.99975 0.999949V2.99985H0.999949C0.734746 2.99985 0.480405 3.1052 0.292878 3.29273C0.105351 3.48025 0 3.73459 0 3.9998C0 4.265 0.105351 4.51934 0.292878 4.70687C0.480405 4.89439 0.734746 4.99975 0.999949 4.99975H16.9991C17.2643 4.99975 17.5187 4.89439 17.7062 4.70687C17.8937 4.51934 17.9991 4.265 17.9991 3.9998C17.9991 3.73459 17.8937 3.48025 17.7062 3.29273C17.5187 3.1052 17.2643 2.99985 16.9991 2.99985ZM6.99965 2.99985V1.9999H10.9994V2.99985H6.99965Z" fill="#3E4155"/>
<path d="M7.99965 15.9986V8.99897C7.99965 8.73377 7.89429 8.47943 7.70677 8.2919C7.51924 8.10438 7.2649 7.99902 6.9997 7.99902C6.73449 7.99902 6.48015 8.10438 6.29263 8.2919C6.1051 8.47943 5.99975 8.73377 5.99975 8.99897V15.9986C5.99975 16.2638 6.1051 16.5182 6.29263 16.7057C6.48015 16.8932 6.73449 16.9986 6.9997 16.9986C7.2649 16.9986 7.51924 16.8932 7.70677 16.7057C7.89429 16.5182 7.99965 16.2638 7.99965 15.9986Z" fill="#3E4155"/>
<path d="M11.9995 15.9986V8.99897C11.9995 8.73377 11.8941 8.47943 11.7066 8.2919C11.5191 8.10438 11.2647 7.99902 10.9995 7.99902C10.7343 7.99902 10.48 8.10438 10.2925 8.2919C10.1049 8.47943 9.99957 8.73377 9.99957 8.99897V15.9986C9.99957 16.2638 10.1049 16.5182 10.2925 16.7057C10.48 16.8932 10.7343 16.9986 10.9995 16.9986C11.2647 16.9986 11.5191 16.8932 11.7066 16.7057C11.8941 16.5182 11.9995 16.2638 11.9995 15.9986Z" fill="#3E4155"/>
</svg>
