<svg width="50" height="50" viewBox="0 0 50 50" fill="none" xmlns="http://www.w3.org/2000/svg">
	<circle cx="25" cy="25" r="24" fill="white" stroke="#f7f6fa" stroke-width="2" />
	<path d="M38.9792 42.1361C38.023 37.7869 35.2211 34.4587 31.0422 32.6515C32.0485 31.6166 32.8246 30.3209 33.262 28.8421C34.6417 28.5518 35.6625 27.2773 35.6625 25.7393C35.6625 24.4845 34.9477 23.3692 33.9002 22.8669C34.4309 19.6753 33.9775 17.0931 32.5239 15.2014C30.3048 12.3121 26.5186 12 24.9937 12C23.4687 12 19.6832 12.3121 17.4634 15.2007C16.0105 17.0917 15.557 19.6725 16.0865 22.8619C15.0383 23.3636 14.3241 24.4774 14.3241 25.7386C14.3241 27.2773 15.3443 28.5518 16.7246 28.8414C17.162 30.3223 17.9402 31.6194 18.9484 32.6551C14.7749 34.4636 11.9763 37.7898 11.0208 42.1354C10.8214 43.0414 12.1183 43.3711 12.3197 42.4538C13.1619 38.6246 15.3603 36.3011 17.6581 34.887V36.659C17.6581 38.6014 19.1538 40.1817 20.9922 40.1817H28.9938C30.8322 40.1817 32.3278 38.6014 32.3278 36.659V34.88C34.6303 36.2926 36.8361 38.6176 37.6796 42.4545C37.8823 43.3718 39.1786 43.0414 38.9792 42.1361V42.1361ZM18.499 16.0892C20.3574 13.6705 23.66 13.4091 24.9937 13.4091C26.3273 13.4091 29.6306 13.6705 31.4883 16.0892C32.6432 17.5919 33.0233 19.688 32.6386 22.3173C31.4223 21.5162 30.4221 19.7725 30.3228 18.9559C30.2694 18.5184 29.85 18.2352 29.4466 18.3789C29.3866 18.3994 23.4967 20.4728 21.5556 17.258C21.3649 16.9417 20.9735 16.8395 20.6648 17.0234C19.2358 17.8794 18.0489 19.1476 17.2094 20.6532C17.1754 18.7932 17.5995 17.2594 18.499 16.0892V16.0892ZM17.8915 28.0234C17.8182 27.7197 17.5635 27.5034 17.2667 27.4936C16.3799 27.464 15.6584 26.6763 15.6584 25.7386C15.6584 24.9058 16.2132 24.1829 16.9773 24.0195C17.212 23.9695 17.4368 23.7144 17.4881 23.515C18.0135 21.486 19.2151 19.7154 20.8235 18.5748C23.0653 21.3246 27.5102 20.4052 29.2065 19.9233C29.74 21.3746 31.1943 23.4805 32.9733 24.0138C33.9048 24.29 34.3289 24.9763 34.3289 25.7386C34.3289 26.6763 33.6074 27.4633 32.7206 27.4936C32.4239 27.5034 32.1691 27.7197 32.0958 28.0234C31.2696 31.4482 28.349 33.8408 24.9937 33.8408C21.6616 33.8408 18.721 31.4609 17.8915 28.0234V28.0234ZM30.9949 36.659C30.9949 37.8243 30.0974 38.7726 28.9945 38.7726H20.9928C19.8899 38.7726 18.9924 37.8243 18.9924 36.659V34.1663C19.3832 33.9817 19.7679 33.8197 20.1433 33.6788C21.5396 34.6736 23.2133 35.2499 24.9937 35.2499C26.776 35.2499 28.451 34.6729 29.848 33.6759C30.2221 33.8161 30.6055 33.9768 30.9949 34.16V36.659Z" fill="#3E4155" />
</svg>
