<svg width="20" height="21" viewBox="0 0 20 21" fill="none" xmlns="http://www.w3.org/2000/svg">
<path d="M6.66667 9.45H4.44444V11.55H6.66667V9.45ZM11.1111 9.45H8.88889V11.55H11.1111V9.45ZM15.5556 9.45H13.3333V11.55H15.5556V9.45ZM17.7778 2.1H16.6667V0H14.4444V2.1H5.55556V0H3.33333V2.1H2.22222C0.988889 2.1 0.0111111 3.045 0.0111111 4.2L0 18.9C0 20.055 0.988889 21 2.22222 21H17.7778C19 21 20 20.055 20 18.9V4.2C20 3.045 19 2.1 17.7778 2.1ZM17.7778 18.9H2.22222V7.35H17.7778V18.9Z" fill="#714EFF"/>
</svg>
