<svg width="14" height="16" viewBox="0 0 14 16" fill="none" xmlns="http://www.w3.org/2000/svg">
<path d="M4.83333 7.25H3.38889V8.75H4.83333V7.25ZM7.72222 7.25H6.27778V8.75H7.72222V7.25ZM10.6111 7.25H9.16667V8.75H10.6111V7.25ZM12.0556 2H11.3333V0.5H9.88889V2H4.11111V0.5H2.66667V2H1.94444C1.14278 2 0.507222 2.675 0.507222 3.5L0.5 14C0.5 14.825 1.14278 15.5 1.94444 15.5H12.0556C12.85 15.5 13.5 14.825 13.5 14V3.5C13.5 2.675 12.85 2 12.0556 2ZM12.0556 14H1.94444V5.75H12.0556V14Z" fill="white"/>
</svg>
