<svg width="21" height="15" viewBox="0 0 21 15" fill="none" xmlns="http://www.w3.org/2000/svg">
<path d="M18.7031 0H2.29688C1.03039 0 0 1.03039 0 2.29688V12.1406C0 13.4071 1.03039 14.4375 2.29688 14.4375H18.7031C19.9696 14.4375 21 13.4071 21 12.1406V2.29688C21 1.03039 19.9696 0 18.7031 0ZM2.29688 1.3125H18.7031C19.2459 1.3125 19.6875 1.75412 19.6875 2.29688V3.60938H1.3125V2.29688C1.3125 1.75412 1.75412 1.3125 2.29688 1.3125ZM18.7031 13.125H2.29688C1.75412 13.125 1.3125 12.6834 1.3125 12.1406V4.92188H19.6875V12.1406C19.6875 12.6834 19.2459 13.125 18.7031 13.125Z" fill="#3E4155"/>
<path d="M4.59375 11.1562H3.9375C3.57509 11.1562 3.28125 10.8624 3.28125 10.5V9.84375C3.28125 9.48134 3.57509 9.1875 3.9375 9.1875H4.59375C4.95616 9.1875 5.25 9.48134 5.25 9.84375V10.5C5.25 10.8624 4.95616 11.1562 4.59375 11.1562Z" fill="#3E4155"/>
</svg>
