<?xml version="1.0" encoding="UTF-8"?>
<svg xmlns="http://www.w3.org/2000/svg" xmlns:xlink="http://www.w3.org/1999/xlink" width="18.6875pt" height="23pt" viewBox="0 0 18.6875 23" version="1.1">
<defs>
<clipPath id="clip1">
  <path d="M 0 10 L 18.6875 10 L 18.6875 23 L 0 23 Z M 0 10 "/>
</clipPath>
</defs>
<g id="surface1">
<path style=" stroke:none;fill-rule:nonzero;fill:rgb(80.831909%,80.831909%,80.831909%);fill-opacity:1;" d="M 9.34375 0 C 6.472656 0 4.140625 2.242188 4.140625 4.996094 C 4.140625 7.75 6.472656 9.992188 9.34375 9.992188 C 12.210938 9.992188 14.546875 7.75 14.546875 4.996094 C 14.546875 2.242188 12.210938 0 9.34375 0 Z M 9.34375 0 "/>
<g clip-path="url(#clip1)" clip-rule="nonzero">
<path style=" stroke:none;fill-rule:nonzero;fill:rgb(80.831909%,80.831909%,80.831909%);fill-opacity:1;" d="M 13.363281 11.402344 C 13.550781 12.167969 13.84375 13.566406 13.746094 14.378906 C 14.511719 15.03125 16.519531 16.949219 16.082031 18.84375 C 16.078125 18.867188 15.871094 19.957031 14.464844 20.417969 C 14.410156 20.433594 14.355469 20.445313 14.300781 20.445313 C 14.09375 20.445313 13.902344 20.320313 13.832031 20.117188 C 13.738281 19.867188 13.878906 19.597656 14.140625 19.511719 C 14.980469 19.234375 15.101563 18.664063 15.101563 18.660156 C 15.402344 17.359375 13.902344 15.785156 13.070313 15.082031 C 12.074219 15.546875 10.1875 16.6875 10.117188 17.992188 C 10.113281 18.03125 10.082031 18.609375 10.804688 19.078125 C 11.03125 19.226563 11.089844 19.527344 10.933594 19.746094 C 10.839844 19.882813 10.679688 19.957031 10.523438 19.957031 C 10.425781 19.957031 10.328125 19.929688 10.242188 19.871094 C 9.007813 19.066406 9.117188 17.960938 9.121094 17.914063 C 9.234375 15.890625 11.992188 14.511719 12.761719 14.164063 C 12.804688 13.445313 12.496094 11.960938 12.265625 11.121094 C 12.257813 11.097656 12.265625 11.070313 12.261719 11.042969 C 11.535156 10.855469 10.773438 10.742188 9.984375 10.742188 L 8.703125 10.742188 C 7.816406 10.742188 6.964844 10.875 6.160156 11.109375 C 6.152344 11.144531 6.148438 11.179688 6.132813 11.210938 C 6.121094 11.234375 5.039063 13.386719 4.523438 16.679688 C 5.390625 16.910156 6.035156 17.667969 6.035156 18.570313 C 6.035156 19.65625 5.113281 20.539063 3.984375 20.539063 C 2.851563 20.539063 1.929688 19.65625 1.929688 18.570313 C 1.929688 17.640625 2.609375 16.863281 3.515625 16.660156 C 3.867188 14.339844 4.480469 12.570313 4.871094 11.609375 C 1.992188 12.972656 0 15.8125 0 19.097656 L 0 22.519531 C 0 22.785156 0.222656 23 0.5 23 L 18.1875 23 C 18.464844 23 18.6875 22.777344 18.6875 22.515625 L 18.6875 19.097656 C 18.6875 15.640625 16.488281 12.667969 13.363281 11.402344 Z M 13.363281 11.402344 "/>
</g>
</g>
</svg>
