<svg width="32" height="32" viewBox="0 0 32 32" fill="none" xmlns="http://www.w3.org/2000/svg">
<path d="M18 7H10.8C9.81 7 9 7.81 9 8.8V23.2C9 24.19 9.81 25 10.8 25H21.6C22.59 25 23.4 24.19 23.4 23.2V12.4L18 7ZM16.2 14.2C17.19 14.2 18 15.01 18 16C18 16.99 17.19 17.8 16.2 17.8C15.21 17.8 14.4 16.99 14.4 16C14.4 15.01 15.21 14.2 16.2 14.2ZM19.8 21.4H12.6V20.887C12.6 20.158 13.032 19.51 13.698 19.222C14.463 18.889 15.309 18.7 16.2 18.7C17.091 18.7 17.937 18.889 18.702 19.222C19.368 19.51 19.8 20.158 19.8 20.887V21.4Z" fill="#714EFF"/>
<circle cx="16" cy="16" r="15" stroke="#714EFF" stroke-width="2"/>
</svg>
