<svg width="19" height="23" viewBox="0 0 19 23" fill="none" xmlns="http://www.w3.org/2000/svg">
<path d="M17.9142 2.98569H16.0142V1.08573C16.0143 0.488544 15.5256 0 14.9288 0H1.08568C0.488544 0 0 0.488544 0 1.08573V18.4571C0 19.0543 0.488544 19.5428 1.08573 19.5428H2.98573V21.4429C2.98573 22.04 3.47406 22.5286 4.07146 22.5286H13.2998C13.8966 22.5286 14.7413 22.1936 15.1759 21.7846L18.2088 18.9297C18.6439 18.5207 18.9995 17.6972 18.9995 17.1L19 4.0715C19 3.47428 18.5114 2.98569 17.9142 2.98569ZM2.98565 4.07146V18.7286H1.08568C0.938586 18.7286 0.814283 18.6043 0.814283 18.4572V1.08573C0.814283 0.93863 0.938586 0.814327 1.08568 0.814327H14.9288C15.0756 0.814327 15.2002 0.93863 15.2002 1.08573V2.98573H4.07137C3.47397 2.98573 2.98565 3.47428 2.98565 4.07146ZM17.6507 18.3369L14.6178 21.1915C14.5556 21.2499 14.4747 21.3071 14.3854 21.3617V18.8643C14.3854 18.6778 14.4606 18.51 14.5846 18.3852C14.7098 18.2611 14.8775 18.1857 15.064 18.1857H17.7796C17.7375 18.2429 17.6944 18.2956 17.6507 18.3369ZM18.1851 17.0999C18.1851 17.1806 18.1704 17.2739 18.1482 17.3713H15.0639C14.2402 17.373 13.5727 18.0404 13.5711 18.8642V21.6813C13.4742 21.7009 13.3808 21.7142 13.2997 21.7142H4.07137V21.7142C3.92397 21.7142 3.79997 21.5899 3.79997 21.4428V4.07142C3.79997 3.92432 3.92401 3.80002 4.07137 3.80002H17.9142C18.0613 3.80002 18.1856 3.92432 18.1856 4.07142L18.1851 17.0999Z" fill="#3E4155"/>
<path d="M14.9288 6.78516H7.05735C6.83233 6.78516 6.65021 6.96728 6.65021 7.1923C6.65021 7.41732 6.83237 7.59944 7.05735 7.59944H14.9288C15.1535 7.59944 15.3359 7.41732 15.3359 7.1923C15.3359 6.96728 15.1535 6.78516 14.9288 6.78516Z" fill="#3E4155"/>
<path d="M14.9288 12.2148H7.05735C6.83233 12.2148 6.65021 12.397 6.65021 12.622C6.65021 12.847 6.83237 13.0291 7.05735 13.0291H14.9288C15.1535 13.0291 15.3359 12.847 15.3359 12.622C15.3359 12.3969 15.1535 12.2148 14.9288 12.2148Z" fill="#3E4155"/>
<path d="M11.4002 14.9287H7.05735C6.83233 14.9287 6.65021 15.1108 6.65021 15.3359C6.65021 15.5609 6.83233 15.743 7.05735 15.743H11.4002C11.6249 15.743 11.8071 15.5609 11.8071 15.3359C11.8071 15.1108 11.6249 14.9287 11.4002 14.9287Z" fill="#3E4155"/>
<path d="M14.9288 9.5H7.05735C6.83233 9.5 6.65021 9.68212 6.65021 9.90714C6.65021 10.1322 6.83237 10.3143 7.05735 10.3143H14.9288C15.1535 10.3143 15.3359 10.1322 15.3359 9.90714C15.3359 9.68212 15.1535 9.5 14.9288 9.5Z" fill="#3E4155"/>
</svg>
