<svg width="27" height="20" viewBox="0 0 27 20" fill="none" xmlns="http://www.w3.org/2000/svg">
<path d="M22.2368 7.71601C23.3117 6.95759 24.0199 5.67267 24.0199 4.21806C24.0199 1.89229 22.21 0.0001102 19.9853 0.0001102C17.7606 0.0001102 15.9506 1.89229 15.9506 4.21806C15.9506 5.67201 16.6582 6.95643 17.7323 7.71502C16.9498 7.99194 16.2172 8.41363 15.5668 8.96653C15.0164 8.41319 14.2778 8.09448 13.5001 8.09448C12.7223 8.09448 11.9837 8.4133 11.4337 8.96653C10.7831 8.41363 10.0504 7.99194 9.2678 7.71497C10.3419 6.95638 11.0494 5.67195 11.0494 4.21795C11.0494 1.89218 9.23948 0 7.01478 0C4.79034 0 2.98065 1.89218 2.98065 4.21795C2.98065 5.67256 3.68872 6.95742 4.76344 7.7159C2.0008 8.69728 0.00669727 11.4331 0.000738281 14.6475C0.000580078 14.6524 0 14.6571 0 14.6619C0 15.5116 0.461848 16.7657 2.66224 17.9146C4.23014 18.7333 6.38476 19.3487 8.89323 19.6942C10.3646 19.8971 11.9146 20 13.5001 20C15.0859 20 16.636 19.8971 18.1073 19.6942C20.6156 19.3487 22.7701 18.7333 24.3379 17.9146C26.5382 16.7656 27 15.5116 27 14.6619C27 11.4413 25.0037 8.69887 22.2368 7.71601ZM17.0095 4.21806C17.0095 2.50263 18.3444 1.10707 19.9853 1.10707C21.6261 1.10707 22.9611 2.50269 22.9611 4.21806C22.9611 5.93321 21.6261 7.3285 19.9853 7.3285C18.3444 7.3285 17.0095 5.93321 17.0095 4.21806ZM11.9204 10.0661C12.2801 9.52472 12.8705 9.20144 13.5 9.20144C14.1298 9.20144 14.7204 9.52472 15.0801 10.0661C15.0801 10.0663 15.0802 10.0664 15.0803 10.0665C15.3047 10.4038 15.4233 10.7999 15.4233 11.2121C15.4233 12.3209 14.5605 13.2229 13.4999 13.2229C12.4397 13.2229 11.5771 12.3208 11.5771 11.2121C11.5771 10.7993 11.6956 10.4033 11.9204 10.0661ZM4.0394 4.21806C4.0394 2.50263 5.37411 1.10707 7.01467 1.10707C8.65556 1.10707 9.99047 2.50269 9.99047 4.21806C9.99047 5.93321 8.6555 7.3285 7.01467 7.3285C5.37411 7.3285 4.0394 5.93321 4.0394 4.21806ZM8.43323 18.5078C6.29828 18.168 4.47578 17.6242 3.13543 16.9243C1.80019 16.2272 1.06339 15.4263 1.05912 14.6685C1.05912 14.6663 1.05943 14.6642 1.05943 14.662C1.05938 11.2287 3.73096 8.43546 7.01473 8.43546C8.41177 8.43546 9.74463 8.94001 10.8112 9.86416C10.6189 10.282 10.5184 10.7401 10.5184 11.2122C10.5184 12.1757 10.9387 13.0384 11.5976 13.6108C9.74711 14.3973 8.43803 16.2954 8.43323 18.5078ZM17.5087 18.656C16.221 18.813 14.8751 18.8932 13.5 18.8932C12.1252 18.8932 10.7795 18.813 9.49182 18.656V18.5201C9.49182 16.2095 11.2898 14.3298 13.5 14.3298C15.7104 14.3298 17.5087 16.2095 17.5087 18.5201V18.656ZM23.8647 16.9243C22.5245 17.6242 20.7022 18.1679 18.5675 18.5078C18.5627 16.2953 17.2535 14.3974 15.4028 13.6107C16.0618 13.0384 16.4823 12.1757 16.4823 11.2121C16.4823 10.7405 16.3818 10.2823 16.1892 9.8641C17.2554 8.9399 18.5881 8.43535 19.9854 8.43535C23.2694 8.43541 25.9412 11.2286 25.9412 14.6619C25.9412 15.4217 25.2038 16.2251 23.8647 16.9243Z" fill="#3E4155"/>
</svg>
