<svg width="18" height="18" viewBox="0 0 18 18" fill="none" xmlns="http://www.w3.org/2000/svg">
<path d="M17.47 7.56932L16.6974 8.18575C16.1682 8.60801 16.1691 9.39284 16.6974 9.81425L17.47 10.4307C18.0197 10.8694 18.1604 11.6217 17.8043 12.2195L16.2788 14.7805C15.9227 15.3783 15.1801 15.6363 14.5133 15.3943L13.5762 15.054C12.9344 14.821 12.2336 15.214 12.1211 15.8682L11.9566 16.825C11.8395 17.5058 11.2377 18 10.5255 18H7.47453C6.76233 18 6.16044 17.5058 6.04339 16.8249L5.87886 15.8682C5.76616 15.2128 5.06445 14.8213 4.42378 15.0539L3.4867 15.3943C2.81991 15.6363 2.07736 15.3783 1.7212 14.7805L0.195722 12.2195C-0.160358 11.6218 -0.0197688 10.8695 0.530075 10.4307L1.30263 9.81429C1.83191 9.39199 1.83085 8.60723 1.30263 8.18578L0.530039 7.56935C-0.0197688 7.1306 -0.160395 6.37829 0.195686 5.78053L1.7212 3.21954C2.07732 2.62178 2.81973 2.3637 3.4867 2.60578L4.42374 2.94606C5.06572 3.17918 5.76634 2.78589 5.87882 2.1318L6.04335 1.17513C6.16044 0.494192 6.76233 0 7.47449 0H10.5255C11.2377 0 11.8395 0.494192 11.9566 1.17506L12.1211 2.13173C12.2337 2.78698 12.9354 3.17872 13.5762 2.94599L14.5133 2.60575C15.1802 2.36362 15.9227 2.62171 16.2788 3.2195L17.8044 5.78053C18.1604 6.37829 18.0197 7.1306 17.47 7.56932ZM15.0223 3.92263L14.0852 4.26291C12.5873 4.80681 10.9524 3.8892 10.69 2.36296L10.5255 1.40625H7.47453L7.31 2.36296C7.04706 3.89215 5.40986 4.80575 3.91478 4.26291L2.9777 3.92263L1.45221 6.48362L2.22477 7.10005C3.45978 8.08548 3.45721 9.91656 2.22477 10.8999L1.45221 11.5164L2.97773 14.0774L3.91478 13.7371C5.4128 13.1932 7.04757 14.1108 7.31 15.637L7.47449 16.5938H10.5255L10.69 15.637C10.953 14.1077 12.5902 13.1944 14.0852 13.7371L15.0223 14.0774L16.5481 11.5167C16.5481 11.5167 16.548 11.5166 16.5477 11.5164L15.7752 10.9C14.5402 9.91463 14.5427 8.08351 15.7752 7.10009L16.5478 6.48366L15.0223 3.92263ZM9.00001 12.4688C7.02664 12.4688 5.42118 10.9127 5.42118 9C5.42118 7.08732 7.02664 5.53124 9.00001 5.53124C10.9734 5.53124 12.5788 7.08732 12.5788 9C12.5788 10.9127 10.9734 12.4688 9.00001 12.4688ZM9.00001 6.93749C7.82665 6.93749 6.87205 7.86273 6.87205 9C6.87205 10.1373 7.82665 11.0625 9.00001 11.0625C10.1734 11.0625 11.128 10.1373 11.128 9C11.128 7.86273 10.1734 6.93749 9.00001 6.93749Z" fill="#3E4155"/>
</svg>
