<svg width="18" height="21" viewBox="0 0 18 21" fill="none" xmlns="http://www.w3.org/2000/svg">
<path d="M1.02422e-05 7.6449V18.2026C8.89069e-06 18.5096 0.0605843 18.8135 0.178265 19.097C0.295946 19.3805 0.468418 19.638 0.685798 19.8548C0.903178 20.0715 1.16119 20.2432 1.44505 20.3601C1.72891 20.4769 2.03304 20.5366 2.34001 20.5357H15.6669C16.2857 20.5357 16.8791 20.2899 17.3167 19.8523C17.7542 19.4148 18 18.8214 18 18.2026V7.6449C18 7.02549 17.7544 6.43135 17.3171 5.99271C16.8797 5.55407 16.2863 5.30673 15.6669 5.3049H14.1854C14.3897 5.09417 14.5707 4.86206 14.7254 4.61259C15.0214 4.11681 15.1846 3.55306 15.1992 2.9758C15.2137 2.39854 15.0791 1.82728 14.8085 1.31721C14.573 0.906024 14.2303 0.566485 13.817 0.334822C13.4036 0.103159 12.9352 -0.0119341 12.4615 0.00182415C11.9428 -0.0147096 11.4267 0.0813128 10.9487 0.283286C10.4706 0.485259 10.042 0.788389 9.69231 1.17182C9.41569 1.4647 9.18254 1.79577 9.00001 2.1549C8.82814 1.79789 8.60672 1.46693 8.34231 1.17182C7.9926 0.788389 7.56399 0.485259 7.08594 0.283286C6.6079 0.0813128 6.09178 -0.0147096 5.57308 0.00182415C5.09925 -0.0123855 4.63038 0.101702 4.21604 0.332024C3.8017 0.562346 3.4573 0.900345 3.21924 1.31029C2.94855 1.82035 2.81399 2.39161 2.82854 2.96887C2.84309 3.54613 3.00627 4.10989 3.30232 4.60567C3.45696 4.85514 3.63801 5.08724 3.84232 5.29798H2.34001C2.03213 5.29797 1.72728 5.35873 1.44293 5.47676C1.15857 5.59479 0.900307 5.76777 0.682927 5.98579C0.465548 6.20381 0.293329 6.46259 0.176141 6.74729C0.0589531 7.03199 -0.000900635 7.33702 1.02422e-05 7.6449ZM16.6154 7.6449V18.2026C16.6154 18.3271 16.5909 18.4505 16.5432 18.5655C16.4955 18.6806 16.4257 18.7852 16.3376 18.8732C16.2495 18.9613 16.145 19.0312 16.0299 19.0788C15.9148 19.1265 15.7915 19.151 15.6669 19.151H9.69231L9.74077 6.68951H15.6877C15.9362 6.69672 16.1722 6.80055 16.3454 6.97894C16.5186 7.15734 16.6155 7.39624 16.6154 7.6449ZM12.4615 1.41413C12.6926 1.39856 12.9233 1.44803 13.1277 1.55694C13.332 1.66584 13.5018 1.82982 13.6177 2.03028C13.7699 2.32918 13.8416 2.66255 13.8258 2.99759C13.8101 3.33263 13.7073 3.65779 13.5277 3.94105C13.23 4.46028 12.4477 5.32567 10.5646 5.32567H9.69231C9.69231 4.48798 9.85154 2.99952 10.6546 2.12028C10.8821 1.87103 11.1624 1.67578 11.475 1.54881C11.7876 1.42184 12.1247 1.36636 12.4615 1.38644V1.41413ZM4.47924 3.91336C4.29963 3.63009 4.19687 3.30494 4.18109 2.9699C4.16531 2.63486 4.23705 2.30149 4.38924 2.00259C4.50461 1.80323 4.67326 1.63997 4.87626 1.53114C5.07926 1.4223 5.30857 1.37219 5.53847 1.38644C5.86643 1.36631 6.19483 1.4178 6.50089 1.53735C6.80694 1.65691 7.0833 1.84165 7.31078 2.07875C8.12078 2.97875 8.26616 4.46721 8.3077 5.3049H7.44231C5.53847 5.3049 4.77693 4.43259 4.47924 3.91336ZM1.38462 7.6449C1.38462 7.39151 1.48528 7.14851 1.66445 6.96934C1.84362 6.79017 2.08663 6.68951 2.34001 6.68951H8.3077L8.25924 19.151H2.34001C2.21487 19.152 2.0908 19.1281 1.97492 19.0808C1.85905 19.0336 1.75367 18.9639 1.66487 18.8757C1.57606 18.7875 1.50558 18.6827 1.45748 18.5672C1.40938 18.4516 1.38462 18.3277 1.38462 18.2026V7.6449Z" fill="#3E4155"/>
</svg>
