<svg width="50" height="50" viewBox="0 0 50 50" fill="none" xmlns="http://www.w3.org/2000/svg">
	<circle cx="25" cy="25" r="24" fill="white" stroke="#f7f6fa" stroke-width="2" />
	<path d="M33.775 17.4827C33.9056 17.7679 34.0042 18.4617 34.0721 18.9476C34.336 20.8303 34.7785 23.9807 38.3254 23.9821C38.3261 23.9828 38.3267 23.9828 38.3281 23.9828C38.5646 23.9828 38.8211 23.8187 38.9298 23.5722C39.0863 23.2158 38.9251 22.7784 38.5839 22.6284C38.5826 22.6277 38.5819 22.6263 38.5806 22.6256C38.0442 22.3946 38.1248 20.6148 38.1895 19.1843C38.2881 17.0044 38.3994 14.5337 37.1053 13.099C36.4516 12.3764 35.5181 12.0094 34.33 12.0094C32.5042 12.0094 31.4428 13.1046 30.9583 14.0055C29.8542 13.9111 29.2925 14.7394 28.922 14.9873C27.7879 14.4281 26.4759 14.1224 25.0013 14.1224C23.526 14.1224 22.2146 14.4281 21.0798 14.988L20.4641 14.4626C20.061 14.1189 19.5586 13.9611 19.0442 14.0062C17.6742 11.4558 14.2965 11.5495 12.8992 13.0997C11.6052 14.5344 11.7164 17.0051 11.8151 19.185C11.8797 20.6155 11.9597 22.396 11.4239 22.6263C11.4226 22.627 11.4219 22.6284 11.4206 22.6291C10.7722 22.9129 10.9402 23.9828 11.6745 23.9828H11.6771C15.2241 23.9814 15.6665 20.831 15.9304 18.9483C16.001 18.4448 16.1036 17.7151 16.2276 17.4587C16.2476 18.7145 17.1331 19.1667 17.2591 19.3118C16.7946 20.507 16.5261 21.8846 16.4714 23.4193C15.2387 23.8159 14.3392 25.0414 14.3392 26.4479C14.3392 27.9861 15.3587 29.2602 16.738 29.5497C17.1758 31.0309 17.9534 32.3282 18.9616 33.3636C18.6617 33.4967 18.3678 33.6396 18.0793 33.7925C18.078 33.7932 18.0767 33.7939 18.0747 33.7946C14.8349 35.511 12.3268 38.4262 11.0488 42.0485C10.7396 42.9246 11.9896 43.4134 12.2975 42.5401C12.7872 41.1519 13.4849 39.8855 14.3385 38.7586V42.295C14.3385 43.2261 15.6712 43.2275 15.6712 42.295V37.2514C16.3149 36.6245 17.0125 36.0561 17.7701 35.5737C18.2786 38.5889 20.7707 40.8863 23.7672 40.8863H26.2327C29.2292 40.8863 31.7213 38.5882 32.2297 35.573C32.9873 36.0554 33.685 36.6238 34.3287 37.2514V42.295C34.3287 43.2261 35.6614 43.2275 35.6614 42.295V38.7593C36.5149 39.8855 37.2126 41.1526 37.7024 42.5408C38.0095 43.4134 39.2609 42.926 38.9511 42.0492C37.6737 38.4262 35.1649 35.5117 31.9252 33.7953C31.9239 33.7946 31.9225 33.7939 31.9205 33.7932C31.632 33.6403 31.3382 33.4974 31.0383 33.3643C32.0465 32.3289 32.8241 31.0316 33.2619 29.5504C34.6412 29.2602 35.6607 27.9861 35.6607 26.4486C35.6607 25.0421 34.7611 23.8166 33.5284 23.42C33.4964 22.5101 33.3965 21.6487 33.2166 20.8549C33.2119 20.8373 33.2152 20.8204 33.2092 20.8028C33.2072 20.7972 33.2032 20.7937 33.2006 20.788C33.08 20.2675 32.9214 19.7794 32.7408 19.3132C32.9507 19.0786 33.741 18.7279 33.775 17.4827V17.4827ZM34.33 13.4181C35.1509 13.4181 35.7427 13.6315 36.1391 14.071C37.04 15.069 36.9427 17.22 36.8568 19.1174C36.8041 20.2774 36.7615 21.3951 36.9434 22.2833C35.9046 21.7388 35.6314 20.4605 35.3895 18.7413C35.1749 17.2115 34.8711 15.6331 33.3005 16.0374C32.1551 14.5499 32.4443 14.8697 32.1811 14.5999C32.4649 14.1203 33.086 13.4181 34.33 13.4181V13.4181ZM31.7639 20.5831C28.4935 21.617 24.9006 21.074 22.036 19.0801C21.7155 18.8582 21.1358 18.9962 21.0212 19.5055C20.6334 21.2338 19.388 22.5995 17.8134 23.1137C18.1006 18.3476 20.74 15.531 25.0013 15.531C28.4409 15.531 30.8211 17.3693 31.7639 20.5831ZM14.6124 18.7413C14.3711 20.4612 14.0973 21.7388 13.0584 22.2833C13.2404 21.3951 13.197 20.2774 13.1451 19.1174C13.0598 17.22 12.9625 15.069 13.8627 14.071C14.6543 13.1941 16.8846 13.0152 17.8201 14.6006C17.5642 14.8626 17.8941 14.4879 16.7007 16.0374C15.1408 15.6353 14.8242 17.2319 14.6124 18.7413ZM17.8028 17.9701C17.5136 17.7285 17.4656 17.2826 17.6962 16.9777L18.689 15.6662C19.1948 14.9993 19.7825 15.7198 19.8491 15.7472C19.0608 16.3522 18.3972 17.1178 17.8714 18.0264L17.8028 17.9701ZM30.9777 34.8722C30.7704 37.4479 28.7234 39.4777 26.234 39.4777H23.7685C21.2791 39.4777 19.2328 37.4479 19.0249 34.8722C19.3927 34.6912 19.7758 34.5376 20.1623 34.3911C21.5556 35.3821 23.2248 35.9561 25.0013 35.9561C26.7777 35.9561 28.4469 35.3821 29.8402 34.3911C30.2267 34.5376 30.6098 34.6912 30.9777 34.8722ZM34.33 26.4479C34.33 27.3853 33.609 28.172 32.7228 28.2023C32.4263 28.2122 32.1717 28.4284 32.0984 28.732C31.2728 32.1557 28.3543 34.5475 25.0013 34.5475C21.6482 34.5475 18.7297 32.1557 17.9041 28.732C17.8308 28.4284 17.5762 28.2122 17.2797 28.2023C16.3935 28.172 15.6725 27.3853 15.6725 26.4479C15.6725 25.5478 16.3342 24.7794 17.1784 24.6984C17.1804 24.6984 17.1824 24.697 17.1844 24.6963C17.1904 24.6956 17.1971 24.6956 17.2031 24.6948C19.386 24.399 21.2364 22.8502 22.0447 20.7317C24.0051 21.9022 26.2167 22.5051 28.4409 22.5051C29.6596 22.5051 30.8797 22.3143 32.0645 21.948C32.1631 22.5904 32.2184 23.2714 32.2184 23.9962C32.2184 24.3434 32.5256 24.6688 32.8248 24.6977C33.6683 24.7794 34.33 25.5478 34.33 26.4479V26.4479ZM30.1534 15.7472C30.286 15.6578 30.4879 15.3641 30.8657 15.4063C31.0403 15.4261 31.2042 15.5219 31.3142 15.6662L32.307 16.9784C32.417 17.1235 32.4689 17.3129 32.4483 17.4982C32.4143 17.8116 32.1971 17.9524 32.1318 18.0278C31.606 17.1185 30.9423 16.3529 30.1534 15.7472V15.7472Z" fill="#3E4155" />
</svg>
