<svg width="13" height="8" viewBox="0 0 13 8" fill="none" xmlns="http://www.w3.org/2000/svg">
<path d="M0.252024 0.0703347C0.491672 -0.0756902 0.79693 0.0130021 0.934024 0.268466L0.936609 0.273159C0.939319 0.278066 0.943939 0.286332 0.950469 0.297745C0.963529 0.320625 0.984198 0.356038 1.01247 0.402224C1.06906 0.49465 1.15587 0.629795 1.2728 0.793527C1.50714 1.12158 1.85974 1.5604 2.32933 1.99869C3.26857 2.87531 4.65626 3.73338 6.50005 3.73338C8.34389 3.73338 9.73152 2.87531 10.6708 1.99869C11.1404 1.5604 11.493 1.12158 11.7273 0.793527C11.8442 0.629795 11.9311 0.49465 11.9876 0.402224C12.0159 0.356038 12.0366 0.320625 12.0496 0.297745C12.0562 0.286332 12.0608 0.278066 12.0635 0.273159L12.0659 0.268786L12.0663 0.268039C12.2036 0.0129492 12.5086 -0.0756369 12.7481 0.0703347C12.9879 0.21652 13.0712 0.542276 12.9341 0.798007L12.5 0.533423C12.9341 0.798006 12.9343 0.797793 12.9341 0.798007L12.9336 0.798966L12.9329 0.800246L12.931 0.803873L12.9248 0.815073C12.9197 0.824299 12.9126 0.836993 12.9035 0.852939C12.8853 0.884779 12.8591 0.929525 12.8249 0.985471C12.7565 1.0972 12.6558 1.25368 12.5227 1.43997C12.2571 1.81186 11.8597 2.30641 11.3293 2.80145C10.2685 3.79146 8.65623 4.80004 6.50005 4.80004C4.34391 4.80004 2.73158 3.79146 1.67083 2.80145C1.14043 2.30641 0.74303 1.81186 0.477377 1.43997C0.344313 1.25368 0.243624 1.0972 0.175209 0.985471C0.140984 0.929525 0.11478 0.884779 0.0965898 0.852939C0.0874948 0.836993 0.0803948 0.824299 0.0752949 0.815073L0.0691399 0.803873L0.06718 0.800246L0.066485 0.798966L0.066205 0.798433C0.066085 0.798219 0.065975 0.798006 0.500092 0.533423L0.066205 0.798433C-0.070799 0.542702 0.0122653 0.21652 0.252024 0.0703347Z" fill="#714EFF"/>
<path d="M1.85354 4.64383L0.853549 5.71048C0.658285 5.91875 0.341708 5.91875 0.146444 5.71048C-0.0488146 5.50222 -0.0488146 5.16451 0.146444 4.95625L1.14644 3.8896C1.3417 3.68133 1.65828 3.68133 1.85354 3.8896C2.0488 4.09786 2.0488 4.43556 1.85354 4.64383Z" fill="#714EFF"/>
<path d="M12.1464 5.71048L11.1464 4.64383C10.9512 4.43556 10.9512 4.09786 11.1464 3.8896C11.3417 3.68133 11.6583 3.68133 11.8535 3.8896L12.8535 4.95625C13.0488 5.16451 13.0488 5.50222 12.8535 5.71048C12.6583 5.91875 12.3417 5.91875 12.1464 5.71048Z" fill="#714EFF"/>
<path d="M3.71413 7.13128C3.61158 7.40472 3.32059 7.53778 3.0642 7.4284C2.80781 7.31901 2.68309 7.00861 2.78565 6.73512L3.28561 5.40181C3.38817 5.12832 3.67913 4.99531 3.93553 5.10469C4.19193 5.21408 4.31663 5.52447 4.21408 5.79796L3.71413 7.13128Z" fill="#714EFF"/>
<path d="M9.93554 7.4284C9.67914 7.53778 9.38814 7.40472 9.28559 7.13128L8.78565 5.79796C8.6831 5.52447 8.8078 5.21408 9.0642 5.10469C9.32059 4.99531 9.61154 5.12832 9.71409 5.40181L10.2141 6.73512C10.3166 7.00861 10.1919 7.31901 9.93554 7.4284Z" fill="#714EFF"/>
<path d="M6.99999 7.46674C6.99999 7.7613 6.77614 8.00007 6.5 8.00007C6.22385 8.00007 6 7.7613 6 7.46674V6.13342C6 5.83887 6.22385 5.6001 6.5 5.6001C6.77614 5.6001 6.99999 5.83887 6.99999 6.13342V7.46674Z" fill="#714EFF"/>
</svg>
