<svg width="50" height="50" viewBox="0 0 50 50" fill="none" xmlns="http://www.w3.org/2000/svg">
	<circle cx="25" cy="25" r="24" fill="white" stroke="#f7f6fa" stroke-width="2" />
	<path fill-rule="evenodd" clip-rule="evenodd" d="M7.3125 39.6853C7.90941 38.9712 8.33934 38.6776 9.1985 38.2411L18.6787 33.4242C19.4915 33.0117 19.9961 32.1818 19.9961 31.2583V29.526C19.8213 29.3589 19.6393 29.1829 19.4423 28.9883C18.322 27.88 17.6975 26.4689 17.0563 24.4636C15.9075 23.8897 15.1503 22.6021 15.1503 21.145C15.1503 20.2021 15.4689 19.3335 16.0004 18.6796C14.1953 14.4746 16.1617 10.6837 16.7902 9.64881C16.5931 7.18748 18.5747 5.29769 18.6629 5.21454C18.9688 4.92635 19.4423 4.92877 19.7466 5.22019C20.824 6.25327 22.3922 6.06033 23.6581 5.90459C24.0669 5.85429 24.4442 5.80788 24.7632 5.80788C31.3498 5.80788 34.2975 9.45669 34.2975 13.0732C34.2975 16.5154 33.9622 18.054 33.5308 18.7926C34.0099 19.4328 34.2975 20.2546 34.2975 21.1458C34.2975 22.5642 33.5816 23.8235 32.4844 24.4192C31.8384 26.4487 31.2131 27.8727 30.0841 28.9891C29.8879 29.1837 29.7059 29.3597 29.5303 29.5268V31.2591C29.5303 32.1826 30.0349 33.0125 30.8477 33.425L40.3279 38.2411C41.25 38.7096 41.8824 39.2155 42.5 40C42.1369 40.3991 41.889 40.6262 41.5 41C41.0081 40.3274 40.3866 40.0764 39.6168 39.6853L33.7485 36.7041C29.3071 42.9014 20.1025 42.8231 15.7009 36.7428L9.90881 39.6853C9.1982 40.0465 8.97627 40.3953 8.5 41C8.11563 40.6239 7.671 40.0864 7.3125 39.6853ZM18.2608 10.3108C18.3808 10.1388 18.4301 9.9257 18.3975 9.71743C18.2171 8.56628 18.8448 7.50473 19.3025 6.90655C20.8209 7.88577 22.6328 7.65922 23.8582 7.506C24.2178 7.46104 24.5269 7.42239 24.7632 7.42239C30.2518 7.42239 32.7084 10.2607 32.7084 13.0732C32.7084 15.1721 32.5734 16.3959 32.4335 17.1006C32.1491 15.5822 31.488 13.0926 30.0746 11.7404C29.323 11.022 28.2861 11.1463 27.0824 11.2916C25.259 11.5112 24.4073 11.533 22.1627 11.2561L22.1608 11.2558C20.7196 11.0775 19.5817 10.9368 18.7511 11.7445C17.9915 12.4831 17.4075 15.0203 17.0651 16.9037C16.1816 13.3929 18.1647 10.4504 18.2608 10.3108ZM18.4491 23.5999C18.3578 23.3052 18.1123 23.1107 17.8326 23.0582C17.1866 22.7821 16.7385 22.0088 16.7385 21.1458C16.7385 20.257 17.2089 19.4635 17.8818 19.2173L17.8858 19.2148C18.1679 19.1091 18.3601 18.8282 18.3975 18.5803C18.7582 16.1949 19.428 13.3477 19.8499 12.9109C20.1367 12.6316 20.9463 12.7309 21.9713 12.8585C24.3524 13.1523 25.3337 13.1281 27.2699 12.8948C28.078 12.7971 28.7755 12.714 28.9853 12.915C30.3511 14.2211 30.9343 17.4163 31.0439 18.5367C31.0828 18.9331 31.4285 19.2076 31.836 19.3561C32.3604 19.6927 32.7084 20.3829 32.7084 21.1458C32.7084 22.0338 32.2365 22.8314 31.5603 23.084C31.2282 23.2083 31.1178 23.478 31.0773 23.5991C30.3566 25.9223 29.8267 26.9912 28.9766 27.8323C26.7583 30.0256 26.531 30.0256 24.7632 30.0256C22.9954 30.0256 22.7682 30.0256 20.5499 27.8323C19.6997 26.9912 19.1698 25.9232 18.4491 23.5999ZM17.1406 36.0115L19.3891 34.8692C20.7437 34.1814 21.5851 32.7978 21.5851 31.2591V30.8717C22.6371 31.595 23.3791 31.6402 24.7632 31.6402C26.1473 31.6402 26.8893 31.595 27.9413 30.8717V31.2591C27.9413 32.7978 28.7827 34.1814 30.1374 34.8692L32.3112 35.9735C28.4951 40.9923 20.9137 40.914 17.1406 36.0115Z" fill="#3E4155" />
</svg>
