<svg width="46" height="68" viewBox="0 0 46 68" xmlns="http://www.w3.org/2000/svg" xmlns:xlink="http://www.w3.org/1999/xlink">
	<path fill="#f33" d="M23.51 51.523a.5.5 0 0 1-.5.477c-.29 0-.51-.21-.52-.477-.145-3.168-1.756-5.217-4.832-6.147C7.53 42.968 0 33.863 0 23 0 10.297 10.297 0 23 0s23 10.297 23 23c0 10.863-7.53 19.968-17.658 22.376-3.076.93-4.687 2.98-4.83 6.147z" />
	<path d="M 20.587 15.437 c -0.087 0.17 -0.087 0.395 -0.087 0.843 V 20.5 H 16.28 c -0.448 0 -0.672 0 -0.843 0.087 a 0.8 0.8 0 0 0 -0.35 0.35 C 15 21.107 15 21.332 15 21.78 v 2.44 c 0 0.448 0 0.672 0.087 0.843 a 0.8 0.8 0 0 0 0.35 0.35 c 0.17 0.087 0.395 0.087 0.843 0.087 H 20.5 v 4.22 c 0 0.448 0 0.672 0.087 0.843 a 0.8 0.8 0 0 0 0.35 0.35 c 0.17 0.087 0.395 0.087 0.843 0.087 h 2.44 c 0.448 0 0.672 0 0.843 -0.087 a 0.8 0.8 0 0 0 0.35 -0.35 c 0.087 -0.17 0.087 -0.395 0.087 -0.843 V 25.5 h 4.22 c 0.448 0 0.672 0 0.843 -0.087 a 0.8 0.8 0 0 0 0.35 -0.35 c 0.087 -0.17 0.087 -0.395 0.087 -0.843 v -2.44 c 0 -0.448 0 -0.672 -0.087 -0.843 a 0.8 0.8 0 0 0 -0.35 -0.35 c -0.17 -0.087 -0.395 -0.087 -0.843 -0.087 H 25.5 V 16.28 c 0 -0.448 0 -0.672 -0.087 -0.843 a 0.8 0.8 0 0 0 -0.35 -0.35 C 24.893 15 24.668 15 24.22 15 h -2.44 c -0.448 0 -0.672 0 -0.843 0.087 a 0.8 0.8 0 0 0 -0.35 0.35 z " fill="#fff" />
	<path d="M 23 66 A 2 2 0 1 0 23.001 62.001 A 2 2 0 0 0 23 66 Z" fill="#f33" />
</svg>
