<svg width="40" height="40" viewBox="0 0 40 40" fill="none" xmlns="http://www.w3.org/2000/svg">
<circle cx="20" cy="20" r="20" fill="#714EFF"/>
<path d="M16.6467 9.00038C16.3257 8.99323 16.0105 9.08749 15.7448 9.27019C15.4792 9.4529 15.2764 9.71503 15.1646 10.0199C15.0528 10.3248 15.0375 10.6573 15.1209 10.9714C15.2043 11.2854 15.3822 11.5653 15.6299 11.7722L25.082 19.9747L15.6299 28.1744C15.4586 28.3019 15.3151 28.4639 15.2084 28.6503C15.1017 28.8366 15.0342 29.0434 15.01 29.2574C14.9858 29.4714 15.0056 29.6882 15.0679 29.8941C15.1303 30.1001 15.234 30.2908 15.3724 30.4543C15.5109 30.6178 15.6813 30.7504 15.8727 30.8442C16.0642 30.9379 16.2728 30.9905 16.4853 30.9988C16.6978 31.0071 16.9097 30.971 17.1077 30.8925C17.3058 30.814 17.4857 30.695 17.6362 30.5428L28.458 21.1635C28.6279 21.0166 28.7644 20.8343 28.858 20.6288C28.9515 20.4232 29 20.1996 29 19.9733C29 19.7469 28.9515 19.5233 28.858 19.3178C28.7644 19.1123 28.6279 18.9297 28.458 18.7828L17.6362 9.39454C17.3628 9.14857 17.0122 9.00873 16.6467 9.00002V9.00038Z" fill="white"/>
</svg>
