<svg width="23" height="25" viewBox="0 0 23 25" fill="none" xmlns="http://www.w3.org/2000/svg">
<path d="M21.6509 18.3166L20.1634 16.1767C19.9603 15.8857 19.8511 15.5397 19.8502 15.1849V9.04337C19.8502 6.73621 18.9337 4.52356 17.3023 2.89215C15.6709 1.26075 13.4583 0.344238 11.1511 0.344238C8.84395 0.344238 6.63129 1.26075 4.99989 2.89215C3.36849 4.52356 2.45197 6.73621 2.45197 9.04337V15.1849C2.45113 15.5397 2.34186 15.8857 2.13881 16.1767L0.651255 18.3166C0.426017 18.5662 0.277904 18.8757 0.224826 19.2076C0.171749 19.5396 0.21598 19.8798 0.352172 20.1872C0.488364 20.4945 0.710683 20.7558 0.992245 20.9395C1.27381 21.1232 1.60255 21.2214 1.93873 21.2221H6.88853C7.08819 22.2054 7.62163 23.0894 8.39847 23.7243C9.17532 24.3593 10.1478 24.7062 11.1511 24.7062C12.1544 24.7062 13.1269 24.3593 13.9037 23.7243C14.6806 23.0894 15.214 22.2054 15.4137 21.2221H20.3635C20.6997 21.2214 21.0284 21.1232 21.31 20.9395C21.5915 20.7558 21.8138 20.4945 21.95 20.1872C22.0862 19.8798 22.1305 19.5396 22.0774 19.2076C22.0243 18.8757 21.8762 18.5662 21.6509 18.3166ZM11.1511 22.962C10.6127 22.9605 10.0879 22.7924 9.64871 22.481C9.20952 22.1695 8.87742 21.7298 8.69795 21.2221H13.6043C13.4248 21.7298 13.0927 22.1695 12.6535 22.481C12.2143 22.7924 11.6895 22.9605 11.1511 22.962ZM1.93873 19.4823C1.97804 19.4458 2.01307 19.405 2.04312 19.3605L3.56546 17.1684C3.97158 16.5865 4.19012 15.8945 4.1918 15.1849V9.04337C4.1918 7.19764 4.92501 5.42752 6.23013 4.1224C7.53525 2.81727 9.30538 2.08406 11.1511 2.08406C12.9968 2.08406 14.7669 2.81727 16.0721 4.1224C17.3772 5.42752 18.1104 7.19764 18.1104 9.04337V15.1849C18.1121 15.8945 18.3306 16.5865 18.7367 17.1684L20.2591 19.3605C20.2891 19.405 20.3242 19.4458 20.3635 19.4823H1.93873Z" fill="#714EFF"/>
</svg>
