<svg width="18" height="18" viewBox="0 0 18 18" fill="none" xmlns="http://www.w3.org/2000/svg">
<path d="M4.04948 7.94401C5.36198 10.5234 7.47656 12.6289 10.056 13.9505L12.0612 11.9453C12.3073 11.6992 12.6719 11.6172 12.9909 11.7266C14.0117 12.0638 15.1146 12.2461 16.2448 12.2461C16.7461 12.2461 17.1562 12.6562 17.1562 13.1576V16.3385C17.1562 16.8398 16.7461 17.25 16.2448 17.25C7.6862 17.25 0.75 10.3138 0.75 1.75521C0.75 1.25391 1.16016 0.84375 1.66146 0.84375H4.85156C5.35286 0.84375 5.76302 1.25391 5.76302 1.75521C5.76302 2.89453 5.94531 3.98828 6.28255 5.00911C6.38281 5.32812 6.3099 5.68359 6.05469 5.9388L4.04948 7.94401Z" fill="white"/>
</svg>
