<svg width="120" height="120" viewBox="0 0 120 120" fill="none" xmlns="http://www.w3.org/2000/svg">
<circle cx="60" cy="60" r="60" fill="#CFC4FB"/>
<circle cx="60" cy="60" r="48.3673" fill="#8E72FE"/>
<path d="M47.5469 83.7188C62.2169 83.7188 74.1094 71.8263 74.1094 57.1562C74.1094 42.4862 62.2169 30.5938 47.5469 30.5938C32.8768 30.5938 20.9844 42.4862 20.9844 57.1562C20.9844 71.8263 32.8768 83.7188 47.5469 83.7188Z" fill="#A9A9A9"/>
<path d="M59.5 66.4531C44.8295 66.4531 32.9375 54.5611 32.9375 39.8906C32.9375 38.1016 33.1208 36.3565 33.4568 34.6671C25.9741 39.366 20.9844 47.6681 20.9844 57.1563C20.9844 71.8267 32.8764 83.7188 47.5469 83.7188C60.4284 83.7188 71.1623 74.5467 73.5901 62.3798C69.5021 64.9457 64.6823 66.4531 59.5 66.4531Z" fill="#E3E3E3"/>
<path d="M42.2344 75.75C45.1684 75.75 47.5469 73.3715 47.5469 70.4375C47.5469 67.5035 45.1684 65.125 42.2344 65.125C39.3004 65.125 36.9219 67.5035 36.9219 70.4375C36.9219 73.3715 39.3004 75.75 42.2344 75.75Z" fill="#FF7373"/>
<path d="M44.8906 71.7656C41.9568 71.7656 39.5781 69.387 39.5781 66.4531C39.5781 66.2393 39.6166 66.0348 39.6405 65.8276C38.0255 66.7387 36.9219 68.4506 36.9219 70.4375C36.9219 73.3713 39.3005 75.75 42.2344 75.75C44.9544 75.75 47.171 73.698 47.4845 71.063C46.7141 71.4973 45.8376 71.7656 44.8906 71.7656Z" fill="#EF5350"/>
<path d="M42.2344 71.7656C42.9679 71.7656 43.5625 71.171 43.5625 70.4375C43.5625 69.704 42.9679 69.1094 42.2344 69.1094C41.5009 69.1094 40.9062 69.704 40.9062 70.4375C40.9062 71.171 41.5009 71.7656 42.2344 71.7656Z" fill="#E53935"/>
<path d="M48.875 41.2188C49.6081 41.2188 50.2031 40.6238 50.2031 39.8906V35.9062C50.2031 35.1731 49.6081 34.5781 48.875 34.5781C48.1419 34.5781 47.5469 35.1731 47.5469 35.9062V39.8906C47.5469 40.6238 48.1419 41.2188 48.875 41.2188Z" fill="#E53935"/>
<path d="M54.5063 43.5563C54.8463 43.5563 55.1863 43.4261 55.4452 43.1671L58.2609 40.3515C58.7802 39.8322 58.7802 38.9928 58.2609 38.4735C57.7416 37.9542 56.9022 37.9542 56.3829 38.4735L53.5673 41.2891C53.048 41.8084 53.048 42.6478 53.5673 43.1671C53.8276 43.4261 54.1663 43.5563 54.5063 43.5563Z" fill="#E53935"/>
<path d="M48.875 54.5C48.1419 54.5 47.5469 55.095 47.5469 55.8281V59.8125C47.5469 60.5456 48.1419 61.1406 48.875 61.1406C49.6081 61.1406 50.2031 60.5456 50.2031 59.8125V55.8281C50.2031 55.095 49.6081 54.5 48.875 54.5Z" fill="#E53935"/>
<path d="M58.2609 57.2452C58.7802 56.7259 58.7802 55.8866 58.2609 55.3673L55.4452 52.5516C54.9259 52.0323 54.0866 52.0323 53.5673 52.5516C53.048 53.0709 53.048 53.9103 53.5673 54.4296L56.3829 57.2452C56.6419 57.5042 56.9819 57.6344 57.3219 57.6344C57.6619 57.6344 58.0019 57.5042 58.2609 57.2452Z" fill="#E53935"/>
<path d="M42.2344 47.8594C42.2344 47.1263 41.6394 46.5312 40.9062 46.5312H36.9219C36.1888 46.5312 35.5938 47.1263 35.5938 47.8594C35.5938 48.5925 36.1888 49.1875 36.9219 49.1875H40.9062C41.6394 49.1875 42.2344 48.5925 42.2344 47.8594Z" fill="#E53935"/>
<path d="M48.875 55.8281C53.276 55.8281 56.8438 52.2604 56.8438 47.8594C56.8438 43.4584 53.276 39.8906 48.875 39.8906C44.474 39.8906 40.9062 43.4584 40.9062 47.8594C40.9062 52.2604 44.474 55.8281 48.875 55.8281Z" fill="#FF7373"/>
<path d="M54.8516 49.8516C50.4502 49.8516 46.8828 46.2842 46.8828 41.8828C46.8828 41.2679 46.9585 40.6729 47.09 40.0978C43.5505 40.9093 40.9062 44.0729 40.9062 47.8594C40.9062 52.2608 44.4736 55.8281 48.875 55.8281C52.6615 55.8281 55.8251 53.1838 56.6366 49.6444C56.0615 49.7759 55.4665 49.8516 54.8516 49.8516Z" fill="#EF5350"/>
<path d="M54.1875 49.1875H60.8281C61.5612 49.1875 62.1562 48.5925 62.1562 47.8594C62.1562 47.1263 61.5612 46.5312 60.8281 46.5312H54.1875C53.4544 46.5312 52.8594 47.1263 52.8594 47.8594C52.8594 48.5925 53.4544 49.1875 54.1875 49.1875Z" fill="#EF5350"/>
<path d="M50.2031 51.8438C50.9366 51.8438 51.5312 51.2491 51.5312 50.5156C51.5312 49.7821 50.9366 49.1875 50.2031 49.1875C49.4696 49.1875 48.875 49.7821 48.875 50.5156C48.875 51.2491 49.4696 51.8438 50.2031 51.8438Z" fill="#E53935"/>
<path d="M46.2188 49.1875C46.9523 49.1875 47.5469 48.5929 47.5469 47.8594C47.5469 47.1259 46.9523 46.5312 46.2188 46.5312C45.4852 46.5312 44.8906 47.1259 44.8906 47.8594C44.8906 48.5929 45.4852 49.1875 46.2188 49.1875Z" fill="#E53935"/>
<path d="M50.2031 46.5312C50.9366 46.5312 51.5312 45.9366 51.5312 45.2031C51.5312 44.4696 50.9366 43.875 50.2031 43.875C49.4696 43.875 48.875 44.4696 48.875 45.2031C48.875 45.9366 49.4696 46.5312 50.2031 46.5312Z" fill="#EF5350"/>
<path d="M44.1788 50.6777L39.4838 55.3726C38.9645 55.8919 38.9645 56.7312 39.4838 57.2505C39.7428 57.5095 40.0828 57.6397 40.4228 57.6397C40.7628 57.6397 41.1028 57.5095 41.3618 57.2505L46.0567 52.5556C46.576 52.0363 46.576 51.1969 46.0567 50.6777C45.5374 50.1584 44.6981 50.1584 44.1788 50.6777Z" fill="#E53935"/>
<path d="M41.3618 38.4682C40.8425 37.9489 40.0031 37.9489 39.4838 38.4682C38.9645 38.9875 38.9645 39.8269 39.4838 40.3462L44.1788 45.0411C44.4377 45.3001 44.7777 45.4302 45.1177 45.4302C45.4577 45.4302 45.7977 45.3001 46.0567 45.0411C46.576 44.5218 46.576 43.6824 46.0567 43.1631L41.3618 38.4682Z" fill="#E53935"/>
<path d="M82.8989 53.3034C80.9612 53.0656 79.0792 53.1559 77.2955 53.5185L78.3355 59.4127C80.3237 58.9798 82.4938 59.0316 84.7676 59.9174C88.5886 61.4062 91.4255 64.8859 91.9434 68.9553C92.8227 75.8509 87.4716 81.7266 80.75 81.7266C75.4322 81.7266 70.9843 78.045 69.7877 73.0937H56.8438C56.8438 76.0276 59.2224 78.4062 62.1562 78.4062H65.4673C68.344 83.9259 74.0948 87.7031 80.75 87.7031C90.8743 87.7031 98.9626 78.9893 97.9253 68.6538C97.1324 60.7382 90.7946 54.2702 82.8989 53.3034Z" fill="#ADE8F4"/>
<path d="M95.9969 78.4992C93.0883 83.9711 87.3641 87.7031 80.75 87.7031C74.0961 87.7031 68.3453 83.9312 65.4633 78.4062H62.1562C59.2211 78.4062 56.8438 76.0289 56.8438 73.0937H59.7391C60.2703 74.6476 61.7445 75.75 63.4844 75.75C65.5031 75.75 67.4156 76.5867 68.8633 77.9945C71.2539 80.3055 74.5078 81.7265 78.0938 81.7265H80.75C87.4703 81.7265 92.8227 75.8562 91.9461 68.95C91.4281 64.8859 88.5859 61.4062 84.7742 59.9187C82.4898 59.0289 80.325 58.9758 78.3328 59.414L77.2969 53.5172C79.0766 53.1586 80.9625 53.0656 82.9016 53.3047C85.4383 53.6101 87.8156 54.5 89.9008 55.8148C89.6352 57.4219 90.1 59.0953 91.2555 60.2906C93.7922 62.9203 95.3594 66.493 95.3594 70.4375C95.3594 71.593 95.2266 72.7219 94.9609 73.8109C94.5625 75.4711 94.9344 77.1976 95.9969 78.4992Z" fill="#48CAE4"/>
<path d="M73.3137 34.4815L84.8153 41.1221L72.8622 61.8249L61.3606 55.1843L73.3137 34.4815Z" fill="#ADE8F4"/>
<path d="M63.6616 56.5129L70.5625 60.4973L67.9062 65.0979L61.0053 61.1136L63.6616 56.5129Z" fill="#48CAE4"/>
<path d="M78.2703 31.2097L85.1712 35.194L82.515 39.7947L75.614 35.8103L78.2703 31.2097Z" fill="#00B4D8"/>
<path d="M78.6262 25.2811L90.1278 31.9218L87.4715 36.5224L75.97 29.8818L78.6262 25.2811Z" fill="#ADE8F4"/>
<path d="M62.1555 61.7774L66.7561 64.4337L64.0998 69.0343L59.4992 66.378L62.1555 61.7774Z" fill="#00B4D8"/>
<path d="M79.9491 38.3128L74.1917 48.2844C72.0428 52.0058 67.3492 53.3286 63.5813 51.3417L61.362 55.1853L72.8636 61.8259L84.8167 41.1218L79.9491 38.3128Z" fill="#48CAE4"/>
<path d="M87.1622 30.2086C85.919 31.1967 84.154 31.388 82.6943 30.5459L77.3646 27.4687L75.9714 29.8819L87.4729 36.5225L90.1292 31.9219L87.1622 30.2086Z" fill="#48CAE4"/>
<path d="M63.6624 56.5148L62.9983 57.6649L64.4566 58.507C66.3624 59.6066 67.0159 62.0438 65.9149 63.9496L67.907 65.0998L70.5633 60.4991L63.6624 56.5148Z" fill="#00B4D8"/>
<path d="M62.1562 61.7794L61.4922 62.9296L61.8003 63.1076C63.0713 63.8407 63.5056 65.465 62.7725 66.736L62.1084 67.8862L64.1006 69.0363L66.7569 64.4357L62.1562 61.7794Z" fill="#0096C7"/>
<path d="M78.0938 59.8125C81.0278 59.8125 83.4062 57.434 83.4062 54.5C83.4062 51.566 81.0278 49.1875 78.0938 49.1875C75.1597 49.1875 72.7812 51.566 72.7812 54.5C72.7812 57.434 75.1597 59.8125 78.0938 59.8125Z" fill="#CFABFF"/>
<path d="M90.0469 87.7031H68.7969C65.863 87.7031 63.4844 90.0818 63.4844 93.0156H95.3594C95.3594 90.0818 92.9807 87.7031 90.0469 87.7031Z" fill="#CFABFF"/>
<path d="M78.0938 57.1562C79.5608 57.1562 80.75 55.967 80.75 54.5C80.75 53.033 79.5608 51.8438 78.0938 51.8438C76.6267 51.8438 75.4375 53.033 75.4375 54.5C75.4375 55.967 76.6267 57.1562 78.0938 57.1562Z" fill="#9747FF"/>
<path d="M95.3594 93.0156H63.4844C63.4844 90.0805 65.8617 87.7031 68.7969 87.7031H69.0359C69.5672 89.257 71.0414 90.3594 72.7812 90.3594H94.6422C95.0937 91.143 95.3594 92.0461 95.3594 93.0156Z" fill="#9747FF"/>
<path d="M78.0938 55.8281C78.8273 55.8281 79.4219 55.2335 79.4219 54.5C79.4219 53.7665 78.8273 53.1719 78.0938 53.1719C77.3602 53.1719 76.7656 53.7665 76.7656 54.5C76.7656 55.2335 77.3602 55.8281 78.0938 55.8281Z" fill="#BBEFC1"/>
</svg>
