<svg width="86" height="90" viewBox="0 0 86 90" fill="none" xmlns="http://www.w3.org/2000/svg">
<path d="M55.7202 46.6002C56.7063 46.3153 59.0154 45.6466 60.0888 42.4897L62.3002 35.9864L63.1897 36.2885C63.5969 36.4272 64.0433 36.2073 64.1819 35.8001L65.3683 32.3111C65.507 31.9039 65.2872 31.4577 64.8796 31.3192L36.211 21.5712C35.804 21.4328 35.3573 21.6528 35.2188 22.0598L34.0324 25.5487C33.8941 25.9557 34.1141 26.4021 34.521 26.5407L35.4105 26.8432L33.1594 33.4649C32.0964 36.5908 32.7996 37.6464 34.1334 39.244L39.9347 46.191L39.288 48.0927C37.0683 48.5744 31.2675 49.8383 30.4866 50.0639C29.5007 50.3491 27.1911 51.0172 26.1175 54.1744L24.2138 59.7739L23.3241 59.4716C22.9172 59.3331 22.4703 59.5528 22.3317 59.96L21.1458 63.4489C21.0072 63.8561 21.2272 64.3022 21.6344 64.4411L50.3031 74.1893C50.7098 74.3276 51.1565 74.1077 51.2951 73.7003L52.4808 70.212C52.6197 69.8048 52.3998 69.3583 51.9922 69.2196L51.1031 68.9171L53.0467 63.1992C54.1097 60.0736 53.407 59.0175 52.0729 57.4207L46.2719 50.4735L46.9181 48.5718C49.138 48.0903 54.9388 46.8265 55.7202 46.6002ZM43.6045 51.6709L49.913 59.2245C50.3969 59.8041 50.6533 60.1205 50.7228 60.4102C50.8064 60.7581 50.6946 61.3742 50.3821 62.2927L48.4381 68.011L26.8787 60.6803L28.7821 55.081C29.3832 53.3137 30.4729 52.9982 31.2682 52.768C31.8903 52.5882 37.2266 51.4183 40.6617 50.6752C41.1443 50.5708 41.5375 50.2203 41.6965 49.7525L42.854 46.3485C43.0118 45.8836 42.9165 45.3704 42.602 44.9936L36.3126 37.4626L36.2935 37.4394C35.8094 36.8598 35.553 36.5434 35.4837 36.2535C35.4003 35.9056 35.5115 35.29 35.8242 34.3711L38.0755 27.7494L59.6354 35.08L57.4238 41.5835C56.8231 43.3512 55.7338 43.6663 54.9382 43.8965C54.3166 44.0765 48.9801 45.2468 45.5453 45.9893C45.0625 46.0938 44.669 46.444 44.5098 46.9122L43.3526 50.3158C43.1945 50.7808 43.2903 51.2937 43.6045 51.6709Z" fill="#3E4155"/>
<path d="M60.6369 78.5116C60.0076 78.8682 59.3587 79.2096 58.7094 79.5262C58.6043 79.5776 58.5029 79.6337 58.4049 79.6943C58.3007 79.7305 58.1971 79.7726 58.0942 79.8204C55.2758 81.1345 52.3368 82.0598 49.3093 82.5964C49.2705 82.602 49.2318 82.6042 49.1927 82.6112C48.4789 82.7374 47.7525 82.8425 47.0341 82.9248C47.0263 82.9261 47.0183 82.928 47.0106 82.9289C45.6912 83.0744 44.3571 83.1487 43.009 83.1487C27.465 83.1487 14.2088 73.175 9.2972 59.2921C9.22324 59.0803 9.14873 58.8689 9.07848 58.6567C7.90113 55.1163 7.26166 51.3325 7.26166 47.4018C7.26166 43.4629 7.90391 39.6708 9.08627 36.1239C9.11203 36.0464 9.13687 35.9695 9.163 35.8918C9.23362 35.6853 9.30665 35.4796 9.38116 35.2744C9.41582 35.178 9.45086 35.0822 9.48644 34.9865C13.5679 24.0011 22.9037 15.55 34.4239 12.6995C34.4311 12.6978 34.4385 12.6973 34.4457 12.6956C34.6161 12.6533 34.7877 12.6122 34.9595 12.5725C34.9788 12.5682 34.9973 12.5612 35.0159 12.5566C37.5291 11.9805 40.1423 11.6708 42.824 11.6571L42.855 15.3324C42.8644 16.4734 43.5849 16.803 44.4549 16.0655L52.2186 9.48473C53.0884 8.74722 53.0792 7.55151 52.1958 6.82864L44.3231 0.379138C43.4405 -0.343549 42.7261 -0.00194513 42.7358 1.1389L42.7667 4.80701C31.4788 4.86947 20.8761 9.29234 12.8873 17.2808C12.1003 18.0678 11.3492 18.8808 10.6325 19.7165C10.6282 19.7213 10.6238 19.7252 10.6193 19.7304C10.5928 19.7612 10.5678 19.7933 10.5417 19.824C4.25359 27.2027 0.70855 36.3991 0.430337 46.1553C0.423479 46.2311 0.415323 46.3064 0.413469 46.3838C0.40587 46.7093 0.401978 47.0402 0.401978 47.3673C0.401978 47.9037 0.412913 48.4474 0.433117 48.9836C0.435341 49.0464 0.443496 49.1078 0.449613 49.1695C0.809937 58.0586 3.88363 66.4628 9.27625 73.4239C9.2946 73.4478 9.30925 73.4734 9.32778 73.4973C9.85455 74.1772 10.4115 74.8507 10.9811 75.4987C11.0178 75.5404 11.058 75.5766 11.0959 75.6162C11.6725 76.2664 12.2678 76.9033 12.8875 77.5228C19.2122 83.8477 27.1759 87.9371 35.8203 89.3979C35.8466 89.4027 35.8731 89.4079 35.8995 89.4127C35.9191 89.4157 35.9386 89.417 35.9578 89.4199C38.2664 89.8021 40.6226 89.9999 43.009 89.9999C49.2889 89.9999 55.338 88.6637 60.9889 86.0297C61.1106 85.9729 61.2263 85.9079 61.3377 85.8391C61.4643 85.7956 61.5887 85.7439 61.7114 85.684C62.4867 85.3055 63.2611 84.8988 64.012 84.4738C65.6582 83.5415 66.2377 81.4515 65.3055 79.8052C64.373 78.1587 62.2828 77.58 60.6369 78.5116Z" fill="#714EFF"/>
<path d="M72.6924 27.4642C73.3535 28.4483 74.436 28.9793 75.5382 28.9793C76.1951 28.9793 76.8598 28.7908 77.4459 28.3967C79.016 27.3415 79.4334 25.2135 78.3782 23.6432C77.8965 22.9268 77.3875 22.2164 76.8628 21.5319C75.7136 20.029 73.5639 19.7432 72.0612 20.8924C70.5588 22.0419 70.2726 24.192 71.4225 25.6943C71.862 26.2691 72.2892 26.8646 72.6924 27.4642Z" fill="#3E4155"/>
<path d="M77.0426 36.4601C77.2628 37.148 77.465 37.8533 77.6444 38.5567C78.0394 40.1062 79.4327 41.1369 80.9615 41.1369C81.2412 41.1369 81.5262 41.1023 81.8098 41.03C83.6431 40.5629 84.7506 38.6977 84.2833 36.8648C84.0702 36.0283 83.8292 35.1892 83.5668 34.3707C82.9903 32.5691 81.0619 31.5758 79.2605 32.1529C77.4585 32.7301 76.4656 34.6585 77.0426 36.4601Z" fill="#3E4155"/>
<path d="M74.8606 70.4597C73.4289 69.2225 71.2664 69.3795 70.029 70.8104C69.5553 71.3583 69.0593 71.8983 68.554 72.415C67.2317 73.7683 67.2569 75.9369 68.6103 77.2594C69.2767 77.9105 70.1408 78.2349 71.0038 78.2349C71.894 78.2349 72.7835 77.8898 73.4543 77.2032C74.056 76.5873 74.6476 75.9443 75.2113 75.2917C76.4481 73.8602 76.2913 71.697 74.8606 70.4597Z" fill="#3E4155"/>
<path d="M82.2748 45.1769C80.3807 45.12 78.8047 46.6076 78.7487 48.4984C78.7274 49.2225 78.6827 49.9551 78.6164 50.6753C78.4434 52.5591 79.8306 54.2267 81.7145 54.3996C81.8209 54.4094 81.9266 54.4141 82.0317 54.4141C83.7814 54.4141 85.2759 53.079 85.4386 51.3016C85.5176 50.4418 85.571 49.5679 85.5965 48.7032C85.6523 46.8128 84.166 45.2334 82.2748 45.1769Z" fill="#3E4155"/>
<path d="M80.7514 58.4605C78.9889 57.7704 77.0022 58.6395 76.3125 60.4015C76.0487 61.0752 75.7605 61.7508 75.4556 62.4085C74.6604 64.1248 75.4072 66.1607 77.1237 66.9561C77.5903 67.1722 78.0796 67.2743 78.5617 67.2743C79.8551 67.2743 81.0925 66.5385 81.6719 65.2881C82.0345 64.5052 82.3781 63.7017 82.6919 62.8991C83.3818 61.1377 82.5128 59.1504 80.7514 58.4605Z" fill="#3E4155"/>
<path d="M69.0858 17.9676C70.2118 16.447 69.8921 14.3019 68.3714 13.1761C67.6791 12.6632 66.9613 12.1652 66.238 11.6947C64.652 10.6636 62.5303 11.1129 61.4991 12.699C60.4682 14.2848 60.9173 16.4064 62.503 17.4379C63.1108 17.8327 63.7132 18.2514 64.295 18.6821C64.9078 19.1357 65.6223 19.3548 66.3309 19.3548C67.3792 19.3548 68.4142 18.8749 69.0858 17.9676Z" fill="#3E4155"/>
</svg>
