<svg width="120" height="120" viewBox="0 0 120 120" fill="none" xmlns="http://www.w3.org/2000/svg">
<circle cx="60" cy="60" r="60" fill="#CFC4FB"/>
<circle cx="60" cy="60" r="48.3673" fill="#8E72FE"/>
<path d="M100 90.3813H19L30.4749 66.4187H88.5251L100 90.3813Z" fill="#F3F3F3"/>
<path d="M100 90.3813H19C19 92.7437 21.025 94.7687 23.3874 94.7687H95.6124C97.975 94.7687 100 92.7437 100 90.3813Z" fill="#CED6E0"/>
<path d="M42.9626 69.7938L43.3 68.1063H39.5874L39.0812 69.7938H42.9626Z" fill="#415A6B"/>
<path d="M81.4376 69.7938H85.3188L84.6437 68.1063H80.7625L81.4376 69.7938Z" fill="#415A6B"/>
<path d="M82.2812 72.325H86.3312L85.4875 70.4687H81.6062L82.2812 72.325Z" fill="#415A6B"/>
<path d="M53.425 69.7938L53.5938 68.1063H49.8813L49.5438 69.7938H53.425Z" fill="#415A6B"/>
<path d="M58.8249 69.7938V68.1063H55.1126L54.9437 69.7938H58.8249Z" fill="#415A6B"/>
<path d="M48.1937 69.7938L48.5313 68.1063H44.8187L44.3125 69.7938H48.1937Z" fill="#415A6B"/>
<path d="M66.0813 75.8688L66.2501 78.0625H70.6375L70.3001 75.8688H66.0813Z" fill="#415A6B"/>
<path d="M77.725 75.8688L78.2312 78.0625H82.6187L81.9438 75.8688H77.725Z" fill="#415A6B"/>
<path d="M38.2375 68.1063H34.3563L33.6813 69.7938H37.5624L38.2375 68.1063Z" fill="#415A6B"/>
<path d="M35.5374 75.8688H31.3188L30.3063 78.0625H34.6937L35.5374 75.8688Z" fill="#415A6B"/>
<path d="M42.7937 75.8688L42.2875 78.0625H64.7313L64.5625 75.8688H42.7937Z" fill="#415A6B"/>
<path d="M36.3813 72.9999H32.3313L31.4874 75.1937H35.7062L36.3813 72.9999Z" fill="#415A6B"/>
<path d="M64.0562 69.7938L63.8874 68.1063H60.175V69.7938H64.0562Z" fill="#415A6B"/>
<path d="M37.0562 75.8688L36.3813 78.0625H40.7688L41.275 75.8688H37.0562Z" fill="#415A6B"/>
<path d="M47.6874 72.325L48.0251 70.4687H44.1437L43.6374 72.325H47.6874Z" fill="#415A6B"/>
<path d="M83.2938 75.1937H87.5126L86.6687 72.9999H82.6187L83.2938 75.1937Z" fill="#415A6B"/>
<path d="M84.3062 78.0625H88.6937L87.6812 75.8688H83.4626L84.3062 78.0625Z" fill="#415A6B"/>
<path d="M54.6063 72.9999V75.1937H58.6563L58.8249 72.9999H54.6063Z" fill="#415A6B"/>
<path d="M49.0376 72.9999L48.8687 75.1937H52.9187L53.2562 72.9999H49.0376Z" fill="#415A6B"/>
<path d="M43.4688 72.9999L42.9626 75.1937H47.1812L47.5188 72.9999H43.4688Z" fill="#415A6B"/>
<path d="M69.7938 72.325L69.4562 70.4687H65.575L65.7438 72.325H69.7938Z" fill="#415A6B"/>
<path d="M75.3626 72.325L74.8563 70.4687H70.9749L71.3126 72.325H75.3626Z" fill="#415A6B"/>
<path d="M64.225 72.325L64.0562 70.4687H60.175V72.325H64.225Z" fill="#415A6B"/>
<path d="M58.8249 72.325V70.4687H54.9437L54.7749 72.325H58.8249Z" fill="#415A6B"/>
<path d="M53.2562 72.325L53.425 70.4687H49.5438L49.2062 72.325H53.2562Z" fill="#415A6B"/>
<path d="M41.9501 72.9999H37.9001L37.225 75.1937H41.4438L41.9501 72.9999Z" fill="#415A6B"/>
<path d="M60.175 72.9999L60.3437 75.1937H64.3937V72.9999H60.175Z" fill="#415A6B"/>
<path d="M76.7125 72.325H80.7625L80.2562 70.4687H76.2062L76.7125 72.325Z" fill="#415A6B"/>
<path d="M77.5562 75.1937H81.775L81.0999 72.9999H77.0499L77.5562 75.1937Z" fill="#415A6B"/>
<path d="M79.9188 69.7938L79.4126 68.1063H75.7L76.0374 69.7938H79.9188Z" fill="#415A6B"/>
<path d="M74.3501 68.1063L74.6875 69.7938H65.575L65.4062 68.1063H74.3501Z" fill="#415A6B"/>
<path d="M65.7438 72.9999L66.0813 75.1937H70.1313L69.9624 72.9999H65.7438Z" fill="#415A6B"/>
<path d="M71.4812 73.1688L72.3251 78.0625H76.7125L75.5312 73.1688H71.4812Z" fill="#415A6B"/>
<path d="M42.7937 70.4687H33.5124L32.6687 72.325H42.2875L42.7937 70.4687Z" fill="#415A6B"/>
<path d="M68.9499 87.6812H50.0501L53.9313 79.9188H65.0688L68.9499 87.6812Z" fill="#CED6E0"/>
<path d="M30.4749 27.7751V66.4189H88.5249V27.7751C88.5249 25.9189 87.0061 24.2313 84.9811 24.2313H34.0187C31.9937 24.2313 30.4749 25.9187 30.4749 27.7751Z" fill="#415A6B"/>
<path d="M84.9811 27.7751H34.0187V63.0438H84.9811V27.7751Z" fill="#B176FF"/>
<g clip-path="url(#clip0_5_621)">
<path d="M55.4304 51.1529L52.1366 51.3653C52.1366 51.3653 46.2926 44.0572 50.7318 36.311C54.0041 30.6027 59.918 31.8472 62.8027 32.8962C62.8027 32.8962 66.0202 32.5938 66.5872 37.5509C67.1543 42.508 65.5246 48.6382 61.9473 51.8609L55.4304 51.1529Z" fill="#414451"/>
<path d="M62.9608 55.2738L61.003 59.0027L57.2227 59.4533L53.9413 58.0818L53.5164 54.8236L54.3439 52.442L54.5791 51.7392C54.757 51.5444 54.8776 51.3042 54.9276 51.0452C54.9695 50.8851 54.9998 50.7223 55.0184 50.5579C55.0354 50.4248 55.0493 50.2887 55.0562 50.147C55.0941 49.36 55.0638 48.5713 54.9654 47.7896C54.9654 47.7896 62.2993 44.4123 61.967 47.7896C61.6347 51.1669 62.2898 51.5355 62.2898 51.5355L62.9608 55.2738Z" fill="#F4BB87"/>
<path d="M53.9145 55.1558C53.9145 55.1558 57.6369 56.9995 63.2742 55.1558V63H55.2262L53.9145 55.1558Z" fill="#69B0EE"/>
<path d="M60.9792 37.1392C60.9792 37.1392 60.7667 38.0363 59.3498 38.2964C58.6912 38.4333 58.0452 38.6253 57.4189 38.8707C55.7913 39.4641 54.4694 40.6848 53.7485 42.2601C53.1961 43.5389 52.9862 44.9397 53.1396 46.3243C53.1396 46.3243 55.5722 50.4327 58.5 50.4089C61.4279 50.3851 63.9059 46.4657 64.3323 45.1437C64.3323 45.1437 65.1114 45.2026 65.5012 44.0338C65.6925 43.5074 65.7866 42.9506 65.779 42.3905C65.7752 42.2466 65.7228 42.1082 65.6305 41.9978C65.3383 41.6924 64.8934 41.5887 64.4964 41.7332C64.4964 41.733 61.8527 40.681 60.9792 37.1392Z" fill="#FED19A"/>
<path d="M62.2932 51.5339L59.647 63H69.8455C70.5203 63 71.0674 62.453 71.0674 61.7782V58.4201C71.0673 55.4454 68.745 52.988 65.7749 52.8199L64.4219 52.7444C63.6583 52.7011 62.9482 52.3387 62.4652 51.7456L62.2932 51.5339Z" fill="#EEEFEE"/>
<path d="M54.7155 51.5724L57.355 63H47.1545C46.4798 63 45.9327 62.453 45.9327 61.7782V58.4201C45.9328 55.4454 48.2551 52.988 51.2251 52.8199L52.5781 52.7444C53.3417 52.7011 54.0519 52.3387 54.5348 51.7456L54.7155 51.5724Z" fill="#EEEFEE"/>
<path d="M65.7204 53.9733C64.1958 53.9733 62.9986 55.9965 62.9986 58.5804C62.9746 59.697 63.234 60.8014 63.7524 61.7906C63.889 62.0348 64.054 62.262 64.2438 62.4676C64.4541 62.4618 64.6395 62.3281 64.7115 62.1304C64.5161 61.9262 64.3507 61.6953 64.22 61.4447C63.7712 60.5577 63.5466 59.5742 63.5656 58.5803C63.5656 56.39 64.5515 54.5399 65.7204 54.5399C66.8893 54.5399 67.8752 56.39 67.8752 58.5803C67.8923 59.5753 67.6666 60.5595 67.2178 61.4477C67.095 61.683 66.9405 61.9003 66.7589 62.0937C66.8136 62.2975 66.9905 62.4449 67.2008 62.4619C67.3993 62.2434 67.5715 62.0023 67.7138 61.7437C68.2143 60.7657 68.4646 59.6787 68.4422 58.5803C68.4423 55.9966 67.2457 53.9733 65.7204 53.9733Z" fill="#BBBBCD"/>
<path d="M67.7588 61.9551C67.758 62.2381 67.5288 62.4673 67.2458 62.4681C67.2304 62.4691 67.2151 62.4671 67.2005 62.4624C66.9902 62.4453 66.8133 62.298 66.7586 62.0942C66.7424 62.0498 66.7347 62.0028 66.7359 61.9555C66.7345 61.6846 66.947 61.4609 67.2175 61.4481C67.2268 61.4458 67.2363 61.4449 67.2458 61.4455C67.5279 61.4442 67.7575 61.6719 67.7588 61.9539V61.9554V61.9551Z" fill="#575B6D"/>
<path d="M64.7466 61.9551C64.7471 62.0154 64.7355 62.0752 64.7125 62.1309C64.6406 62.3285 64.4552 62.4622 64.2449 62.4681H64.2336C63.9513 62.4668 63.7232 62.2375 63.7237 61.9551C63.7228 61.899 63.7324 61.8433 63.752 61.7907C63.8196 61.5874 64.0081 61.449 64.2223 61.4452H64.2336C64.5159 61.4447 64.7454 61.6728 64.7466 61.9551Z" fill="#575B6D"/>
<path d="M65.7204 54.5412C65.5939 54.5409 65.4828 54.4569 65.4482 54.3351C65.2391 53.7086 64.8434 53.161 64.3141 52.7659C64.1859 52.6762 64.1547 52.4996 64.2443 52.3714C64.334 52.2432 64.5106 52.212 64.6388 52.3017C65.2762 52.7701 65.7499 53.4275 65.9925 54.1805C66.0349 54.3314 65.9469 54.4882 65.796 54.5305C65.7711 54.5375 65.7455 54.5411 65.7196 54.5411H65.7204V54.5412Z" fill="#BBBBCD"/>
<path d="M55.0599 50.1469C55.0512 50.2886 55.0372 50.4247 55.0221 50.5578C55.0035 50.7222 54.9732 50.885 54.9313 51.0451C54.4399 51.439 51.3695 54.1136 51.537 59.4435C51.5423 59.6006 51.4193 59.7324 51.2621 59.7379H51.2535C51.1004 59.7376 50.975 59.6161 50.97 59.4631C50.8256 55.8935 52.3345 52.4566 55.0599 50.1469Z" fill="#BBBBCD"/>
<path d="M51.1976 61.9903C51.9803 61.9903 52.6148 61.3558 52.6148 60.5731C52.6148 59.7903 51.9803 59.1558 51.1976 59.1558C50.4148 59.1558 49.7803 59.7903 49.7803 60.5731C49.7803 61.3558 50.4148 61.9903 51.1976 61.9903Z" fill="#575B6D"/>
<path d="M51.1979 61.3446C51.6241 61.3446 51.9695 60.9992 51.9695 60.573C51.9695 60.1469 51.6241 59.8015 51.1979 59.8015C50.7718 59.8015 50.4264 60.1469 50.4264 60.573C50.4264 60.9992 50.7718 61.3446 51.1979 61.3446Z" fill="#BBBBCD"/>
</g>
<defs>
<clipPath id="clip0_5_621">
<rect width="31" height="31" fill="white" transform="translate(43 32)"/>
</clipPath>
</defs>
</svg>
