<svg width="120" height="120" viewBox="0 0 120 120" fill="none" xmlns="http://www.w3.org/2000/svg">
<circle cx="60" cy="60" r="60" fill="#CFC4FB"/>
<circle cx="60" cy="60" r="48.3673" fill="#8E72FE"/>
<g clip-path="url(#clip0_5_135)">
<path d="M59.7652 25.9385H92.6443V92.2666H27.9684V25.9385H36.8749" fill="#ECEDF2"/>
<path d="M59.7652 25.9385H92.6443V32.7579H27.9684V25.9385H36.8749" fill="#C6CAD5"/>
<path d="M50.9505 28.5204H92.6443H95.5486C96.2036 28.5204 96.7347 27.9895 96.7347 27.3343V24.5426C96.7347 23.8876 96.2038 23.3565 95.5486 23.3565H54.008H42.6304H25.064C24.409 23.3565 23.878 23.8874 23.878 24.5426V27.3345C23.878 27.9895 24.4089 28.5205 25.064 28.5205H27.9684H43.6537" fill="#525C66"/>
<path d="M48.3203 50.3766C55.7207 50.3766 61.72 44.3773 61.72 36.9768C61.72 29.5764 55.7207 23.5771 48.3203 23.5771C40.9198 23.5771 34.9205 29.5764 34.9205 36.9768C34.9205 44.3773 40.9198 50.3766 48.3203 50.3766Z" fill="#C6CAD5"/>
<path d="M48.3203 48.8898C55.7207 48.8898 61.72 42.8905 61.72 35.4901C61.72 28.0896 55.7207 22.0903 48.3203 22.0903C40.9198 22.0903 34.9205 28.0896 34.9205 35.4901C34.9205 42.8905 40.9198 48.8898 48.3203 48.8898Z" fill="white"/>
<path d="M56.145 32.8595H51.5438C51.2162 32.8595 50.9505 32.594 50.9505 32.2663V27.6651C50.9505 27.3375 50.685 27.0718 50.3573 27.0718H46.2823C45.9547 27.0718 45.689 27.3373 45.689 27.6651V32.2664C45.689 32.594 45.4235 32.8597 45.0958 32.8597H40.4945C40.167 32.8597 39.9013 33.1252 39.9013 33.4529V37.5279C39.9013 37.8555 40.1668 38.1212 40.4945 38.1212H45.0958C45.4233 38.1212 45.689 38.3867 45.689 38.7144V43.3157C45.689 43.6433 45.9545 43.9089 46.2823 43.9089H50.3573C50.6849 43.9089 50.9505 43.6434 50.9505 43.3157V38.7144C50.9505 38.3869 51.2161 38.1212 51.5438 38.1212H56.145C56.4726 38.1212 56.7383 37.8557 56.7383 37.5279V33.4529C56.7383 33.1252 56.4727 32.8595 56.145 32.8595Z" fill="#D81616"/>
<path d="M75.8803 53.3875H68.6339V66.6198H75.8803V53.3875Z" fill="#A0D9F2"/>
<path d="M51.9788 53.3875H44.7323V66.6198H51.9788V53.3875Z" fill="#A0D9F2"/>
<path d="M87.8303 53.3875H80.5839V66.6198H87.8303V53.3875Z" fill="#A0D9F2"/>
<path d="M63.9288 53.3875H56.6823V66.6198H63.9288V53.3875Z" fill="#A0D9F2"/>
<path d="M40.0292 53.3875H32.7828V66.6198H40.0292V53.3875Z" fill="#A0D9F2"/>
<path d="M51.9788 71.1169H44.7323V84.3493H51.9788V71.1169Z" fill="#A0D9F2"/>
<path d="M63.9288 71.1169H56.6823V84.3493H63.9288V71.1169Z" fill="#A0D9F2"/>
<path d="M40.0292 71.1169H32.7828V84.3493H40.0292V71.1169Z" fill="#A0D9F2"/>
<path d="M75.8803 35.6566H68.6339V48.8889H75.8803V35.6566Z" fill="#A0D9F2"/>
<path d="M87.8303 35.6566H80.5839V48.8889H87.8303V35.6566Z" fill="#A0D9F2"/>
<path d="M75.8799 67.5118H68.6335C68.1408 67.5118 67.7414 67.1122 67.7414 66.6197V53.3873C67.7414 52.8947 68.141 52.4952 68.6335 52.4952H75.8799C76.3725 52.4952 76.772 52.8948 76.772 53.3873V66.6197C76.772 67.1123 76.3724 67.5118 75.8799 67.5118ZM69.5255 65.7275H74.9877V54.2794H69.5255V65.7275Z" fill="white"/>
<path d="M51.9795 67.5118H44.7331C44.2404 67.5118 43.841 67.1122 43.841 66.6197V53.3873C43.841 52.8947 44.2406 52.4952 44.7331 52.4952H51.9795C52.4721 52.4952 52.8716 52.8948 52.8716 53.3873V66.6197C52.8716 67.1123 52.472 67.5118 51.9795 67.5118ZM45.6251 65.7275H51.0873V54.2794H45.6251V65.7275Z" fill="white"/>
<path d="M87.83 67.5118H80.5836C80.091 67.5118 79.6915 67.1122 79.6915 66.6197V53.3873C79.6915 52.8947 80.0911 52.4952 80.5836 52.4952H87.83C88.3227 52.4952 88.7221 52.8948 88.7221 53.3873V66.6197C88.7221 67.1123 88.3227 67.5118 87.83 67.5118ZM81.4757 65.7275H86.9378V54.2794H81.4757V65.7275Z" fill="white"/>
<path d="M63.9296 67.5118H56.6832C56.1905 67.5118 55.7911 67.1122 55.7911 66.6197V53.3873C55.7911 52.8947 56.1907 52.4952 56.6832 52.4952H63.9296C64.4223 52.4952 64.8217 52.8948 64.8217 53.3873V66.6197C64.8217 67.1123 64.4221 67.5118 63.9296 67.5118ZM57.5753 65.7275H63.0374V54.2794H57.5753V65.7275Z" fill="white"/>
<path d="M40.0291 67.5118H32.7828C32.2901 67.5118 31.8907 67.1122 31.8907 66.6197V53.3873C31.8907 52.8947 32.2903 52.4952 32.7828 52.4952H40.0292C40.5219 52.4952 40.9213 52.8948 40.9213 53.3873V66.6197C40.9213 67.1123 40.5219 67.5118 40.0291 67.5118ZM33.6748 65.7275H39.137V54.2794H33.6748V65.7275Z" fill="white"/>
<path d="M87.83 71.1172H68.6335V89.6844L87.83 91.1714V71.1172Z" fill="#A0D9F2"/>
<path d="M88.7221 90.4279H86.9378V72.0093H69.5255V90.4279H67.7412V71.1172C67.7412 70.6246 68.1408 70.2251 68.6333 70.2251H87.8299C88.3225 70.2251 88.722 70.6247 88.722 71.1172L88.7221 90.4279Z" fill="white"/>
<path d="M51.9795 85.2418H44.7331C44.2404 85.2418 43.841 84.8422 43.841 84.3497V71.1174C43.841 70.6247 44.2406 70.2253 44.7331 70.2253H51.9795C52.4721 70.2253 52.8716 70.6249 52.8716 71.1174V84.3497C52.8716 84.8422 52.472 85.2418 51.9795 85.2418ZM45.6251 83.4575H51.0873V72.0094H45.6251V83.4575Z" fill="white"/>
<path d="M63.9296 85.2418H56.6832C56.1905 85.2418 55.7911 84.8422 55.7911 84.3497V71.1174C55.7911 70.6247 56.1907 70.2253 56.6832 70.2253H63.9296C64.4223 70.2253 64.8217 70.6249 64.8217 71.1174V84.3497C64.8217 84.8422 64.4221 85.2418 63.9296 85.2418ZM57.5753 83.4575H63.0374V72.0094H57.5753V83.4575Z" fill="white"/>
<path d="M40.0291 85.2418H32.7828C32.2901 85.2418 31.8907 84.8422 31.8907 84.3497V71.1174C31.8907 70.6247 32.2903 70.2253 32.7828 70.2253H40.0292C40.5218 70.2253 40.9213 70.6249 40.9213 71.1174V84.3497C40.9213 84.8422 40.5218 85.2418 40.0291 85.2418ZM33.6748 83.4575H39.137V72.0094H33.6748V83.4575Z" fill="white"/>
<path d="M75.8799 49.7819H68.6335C68.1408 49.7819 67.7414 49.3823 67.7414 48.8898V35.6571C67.7414 35.1645 68.141 34.765 68.6335 34.765H75.8799C76.3725 34.765 76.772 35.1646 76.772 35.6571V48.8895C76.772 49.3823 76.3724 49.7819 75.8799 49.7819ZM69.5255 47.9976H74.9877V36.5493H69.5255V47.9976Z" fill="white"/>
<path d="M87.83 49.7819H80.5836C80.091 49.7819 79.6915 49.3823 79.6915 48.8898V35.6571C79.6915 35.1645 80.0911 34.765 80.5836 34.765H87.83C88.3227 34.765 88.7221 35.1646 88.7221 35.6571V48.8895C88.7221 49.3823 88.3227 49.7819 87.83 49.7819ZM81.4757 47.9976H86.9378V36.5493H81.4757V47.9976Z" fill="white"/>
<path d="M87.8309 74.7598H68.6339V76.5441H87.8309V74.7598Z" fill="white"/>
<path d="M79.1237 75.6519H77.3395V91.1703H79.1237V75.6519Z" fill="white"/>
<path d="M51.9793 74.4624H44.7323V76.2467H51.9793V74.4624Z" fill="white"/>
<path d="M63.9299 76.2461H56.6829V74.4618H63.0378V71.1178H64.8221V75.3539C64.822 75.8467 64.4225 76.2461 63.9299 76.2461Z" fill="white"/>
<path d="M40.0285 74.4624H32.7829V76.2467H40.0285V74.4624Z" fill="white"/>
<path d="M87.8298 58.5168H80.5842V56.7325H86.9375V53.387H88.7218V57.6245C88.722 58.1172 88.3225 58.5168 87.8298 58.5168Z" fill="white"/>
<path d="M63.9293 56.7329H56.6823V58.5172H63.9293V56.7329Z" fill="white"/>
<path d="M40.0285 56.7329H32.7829V58.5172H40.0285V56.7329Z" fill="white"/>
<path d="M51.9793 56.7329H44.7323V58.5172H51.9793V56.7329Z" fill="white"/>
<path d="M75.8793 56.7329H68.6323V58.5172H75.8793V56.7329Z" fill="white"/>
<path d="M87.8298 40.7871H80.5842V39.0029H86.9375V35.6574H88.7218V39.8949C88.722 40.3877 88.3225 40.7871 87.8298 40.7871Z" fill="white"/>
<path d="M75.8793 39.0034H68.6323V40.7877H75.8793V39.0034Z" fill="white"/>
<path d="M94.5531 89.6845H26.0587C24.8542 89.6845 23.8776 90.6611 23.8776 91.8656V94.8484H96.7343V91.8656C96.7343 90.6611 95.7577 89.6845 94.5531 89.6845Z" fill="#423E3E"/>
</g>
<defs>
<clipPath id="clip0_5_135">
<rect width="72.8571" height="72.8571" fill="white" transform="translate(23.8776 22.0408)"/>
</clipPath>
</defs>
</svg>
