<svg width="82" height="82" viewBox="0 0 82 82" fill="none" xmlns="http://www.w3.org/2000/svg">
<circle cx="41" cy="41" r="41" fill="#CFC4FB"/>
<circle cx="41" cy="41" r="33.051" fill="#8E72FE"/>
<path d="M53.2542 18.4501H51.0875C51.0875 17.6494 50.4385 17 49.6374 17H24.4155C23.6146 17 22.9653 17.6492 22.9653 18.4501V56.9906C22.9653 57.7915 23.6146 58.4407 24.4155 58.4407C51.909 58.4407 49.7661 58.5252 50.2396 58.3085C50.6066 58.1405 50.891 57.8243 51.0166 57.4364H53.2541C53.2542 57.1581 53.2542 18.9936 53.2542 18.4501Z" fill="#C293FF"/>
<path d="M52.6519 17H49.6374C50.4383 17 51.0875 17.6492 51.0875 18.4501V56.9906C51.0875 57.7915 50.4383 58.4407 49.6374 58.4407H52.6519C53.4528 58.4407 54.102 57.7915 54.102 56.9906V18.4501C54.102 17.6492 53.4528 17 52.6519 17V17Z" fill="#9747FF"/>
<path d="M54.1021 26.9339L47.4041 20.236H27.239C26.132 20.236 25.2346 21.1334 25.2346 22.2404V58.0805C25.2346 58.2037 25.2473 58.3237 25.2686 58.4407H52.6519C53.4528 58.4407 54.1021 57.7915 54.1021 56.9906V26.9339Z" fill="#9747FF"/>
<path d="M56.4775 27.3072L53.0788 25.1851L50.1445 20.236H29.9794C28.8724 20.236 27.975 21.1334 27.975 22.2404V58.0805C27.975 59.1875 28.8724 60.085 29.9794 60.085H56.4386C56.4517 60.085 56.4645 60.0833 56.4775 60.083V27.3072Z" fill="#EAF6FF"/>
<path d="M58.443 28.5345L55.4286 26.6523V58.0806C55.4286 59.1876 54.5311 60.085 53.4241 60.085H56.4387C57.5457 60.085 58.4431 59.1876 58.4431 58.0806V28.5345H58.443Z" fill="#D8ECFE"/>
<path d="M52.1489 28.5345H58.443L50.1445 20.236V26.5301C50.1445 27.6371 51.0419 28.5345 52.1489 28.5345Z" fill="#B3DAFE"/>
<path d="M53.6324 33.0769H32.7857C32.3852 33.0769 32.0607 32.7522 32.0607 32.3518C32.0607 31.9514 32.3852 31.6268 32.7857 31.6268H53.6324C54.0329 31.6268 54.3574 31.9514 54.3574 32.3518C54.3574 32.7522 54.0329 33.0769 53.6324 33.0769Z" fill="#8E72FE"/>
<path d="M53.6324 37.8741H32.7857C32.3852 37.8741 32.0607 37.5494 32.0607 37.149C32.0607 36.7486 32.3852 36.424 32.7857 36.424H53.6324C54.0329 36.424 54.3574 36.7486 54.3574 37.149C54.3574 37.5494 54.0329 37.8741 53.6324 37.8741Z" fill="#8E72FE"/>
<path d="M61.5335 41H59.9621C59.6256 40.4183 58.9967 40.0282 58.2876 40.0282C57.293 40.0282 35.3452 40.0282 33.946 40.0282L31.4007 35.8169H29.8577C29.5867 35.4545 29.1586 35.235 28.6971 35.235H20.2145C19.4136 35.235 18.7644 35.8844 18.7644 36.6852V63.0664C18.7644 64.1343 19.6301 64.9999 20.6979 64.9999H58.2876C58.6069 64.9999 58.9316 64.9172 59.2188 64.7585H59.2225C59.4662 64.6236 59.6769 64.437 59.8417 64.2145H61.5334V41H61.5335Z" fill="#FDB441"/>
<path d="M29.982 36.0129L32.0831 40.0282H35.0976L32.9966 36.0129C32.7464 35.5347 32.2514 35.235 31.7117 35.235H28.6972C29.2368 35.235 29.7318 35.5347 29.982 36.0129Z" fill="#FEA613"/>
<path d="M61.3022 40.0282H58.2877C59.3556 40.0282 60.2212 40.8939 60.2212 41.9617V63.0664C60.2212 64.1343 59.3555 64.9999 58.2877 64.9999H61.3022C62.3701 64.9999 63.2357 64.1342 63.2357 63.0664V41.9618C63.2357 40.8939 62.37 40.0282 61.3022 40.0282Z" fill="#FEA613"/>
</svg>
