<svg width="82" height="82" viewBox="0 0 82 82" fill="none" xmlns="http://www.w3.org/2000/svg">
<circle cx="41" cy="41" r="41" fill="#CFC4FB"/>
<circle cx="41" cy="41" r="33.051" fill="#8E72FE"/>
<g clip-path="url(#clip0_922_2102)">
<path d="M36.1282 46.7975L30.9007 47.1347C30.9007 47.1347 21.6257 35.536 28.6712 23.242C33.8646 14.1824 43.2505 16.1575 47.8289 17.8224C47.8289 17.8224 52.9353 17.3424 53.8352 25.2098C54.7352 33.0772 52.1487 42.8064 46.4712 47.9212L36.1282 46.7975Z" fill="#414451"/>
<path d="M48.0797 53.3378L44.9725 59.2559L38.9728 59.9711L33.7649 57.7944L33.0906 52.6233L34.4039 48.8435L34.7771 47.7281C35.0594 47.4189 35.251 47.0377 35.3302 46.6266C35.3967 46.3725 35.4448 46.1141 35.4743 45.8532C35.5013 45.642 35.5235 45.426 35.5343 45.2011C35.5945 43.9521 35.5464 42.7003 35.3903 41.4597C35.3903 41.4597 47.0298 36.0995 46.5024 41.4597C45.975 46.8198 47.0148 47.4048 47.0148 47.4048L48.0797 53.3378Z" fill="#F4BB87"/>
<path d="M33.7223 53.1506C33.7223 53.1506 39.6302 56.0766 48.5771 53.1506V65.6H35.8042L33.7223 53.1506Z" fill="#714EFF"/>
<path d="M44.9346 24.5565C44.9346 24.5565 44.5975 25.9802 42.3488 26.3931C41.3035 26.6103 40.2782 26.9151 39.2841 27.3045C36.7011 28.2463 34.603 30.1838 33.459 32.6838C32.5822 34.7135 32.249 36.9366 32.4924 39.1341C32.4924 39.1341 36.3533 45.6546 41 45.6168C45.6468 45.579 49.5796 39.3585 50.2564 37.2604C50.2564 37.2604 51.493 37.354 52.1116 35.4989C52.4151 34.6634 52.5645 33.7797 52.5525 32.8909C52.5464 32.6624 52.4633 32.4428 52.3167 32.2675C51.8531 31.7829 51.147 31.6182 50.5168 31.8476C50.5168 31.8474 46.3211 30.1776 44.9346 24.5565Z" fill="#FED19A"/>
<path d="M47.0201 47.4023L42.8203 65.6H59.0064C60.0773 65.6 60.9456 64.7319 60.9456 63.6609V58.3313C60.9455 53.6101 57.2597 49.71 52.546 49.4433L50.3987 49.3234C49.1867 49.2547 48.0597 48.6795 47.2932 47.7382L47.0201 47.4023Z" fill="#EEEFEE"/>
<path d="M34.9937 47.4634L39.1827 65.6H22.9936C21.9227 65.6 21.0545 64.7319 21.0545 63.6609V58.3314C21.0546 53.6101 24.7404 49.71 29.4541 49.4433L31.6014 49.3234C32.8133 49.2547 33.9404 48.6795 34.7068 47.7383L34.9937 47.4634Z" fill="#EEEFEE"/>
<path d="M52.4595 51.2739C50.0398 51.2739 48.1396 54.4849 48.1396 58.5857C48.1017 60.3578 48.5132 62.1107 49.336 63.6806C49.5529 64.0682 49.8147 64.4288 50.116 64.7552C50.4498 64.7458 50.744 64.5336 50.8582 64.22C50.5481 63.8958 50.2856 63.5294 50.0782 63.1316C49.3659 61.7238 49.0094 60.163 49.0396 58.5856C49.0396 55.1094 50.6043 52.1731 52.4595 52.1731C54.3146 52.1731 55.8794 55.1094 55.8794 58.5856C55.9065 60.1648 55.5483 61.7267 54.836 63.1364C54.641 63.5098 54.3959 63.8547 54.1076 64.1617C54.1945 64.4851 54.4752 64.719 54.809 64.7461C55.124 64.3993 55.3973 64.0167 55.6231 63.6062C56.4175 62.054 56.8148 60.3289 56.7792 58.5856C56.7793 54.485 54.8803 51.2739 52.4595 51.2739Z" fill="#BBBBCD"/>
<path d="M55.6946 63.9417C55.6933 64.3908 55.3295 64.7546 54.8804 64.7559C54.856 64.7574 54.8316 64.7542 54.8085 64.7468C54.4747 64.7197 54.194 64.4858 54.1071 64.1624C54.0814 64.092 54.0692 64.0173 54.0711 63.9422C54.069 63.5124 54.4062 63.1573 54.8355 63.137C54.8502 63.1334 54.8654 63.132 54.8804 63.1328C55.3281 63.1308 55.6926 63.4921 55.6946 63.9397V63.9421V63.9417Z" fill="#575B6D"/>
<path d="M50.9139 63.9417C50.9147 64.0374 50.8963 64.1322 50.8599 64.2207C50.7457 64.5343 50.4515 64.7465 50.1177 64.7559H50.0998C49.6517 64.7538 49.2897 64.3898 49.2904 63.9417C49.2891 63.8527 49.3044 63.7641 49.3354 63.6807C49.4427 63.3581 49.7418 63.1384 50.0818 63.1324H50.0998C50.5478 63.1317 50.912 63.4936 50.9139 63.9417Z" fill="#575B6D"/>
<path d="M52.4595 52.175C52.2586 52.1746 52.0824 52.0412 52.0275 51.848C51.6956 50.8537 51.0676 49.9846 50.2275 49.3575C50.0241 49.2151 49.9745 48.9349 50.1168 48.7314C50.2592 48.528 50.5394 48.4784 50.7429 48.6207C51.7545 49.3642 52.5064 50.4076 52.8914 51.6026C52.9586 51.8422 52.8189 52.0909 52.5794 52.1581C52.54 52.1692 52.4992 52.1749 52.4583 52.1749H52.4595V52.175Z" fill="#BBBBCD"/>
<path d="M35.5402 45.201C35.5265 45.4259 35.5042 45.6419 35.4802 45.8531C35.4507 46.114 35.4026 46.3725 35.3362 46.6265C34.5563 47.2517 29.6832 51.4965 29.949 59.9555C29.9575 60.205 29.7622 60.4142 29.5128 60.4229H29.4991C29.256 60.4224 29.0571 60.2296 29.0491 59.9868C28.82 54.3214 31.2147 48.8667 35.5402 45.201Z" fill="#BBBBCD"/>
<path d="M29.4103 63.9975C30.6526 63.9975 31.6596 62.9905 31.6596 61.7482C31.6596 60.506 30.6526 59.4989 29.4103 59.4989C28.1681 59.4989 27.161 60.506 27.161 61.7482C27.161 62.9905 28.1681 63.9975 29.4103 63.9975Z" fill="#575B6D"/>
<path d="M29.4109 62.9728C30.0872 62.9728 30.6355 62.4245 30.6355 61.7482C30.6355 61.0719 30.0872 60.5236 29.4109 60.5236C28.7346 60.5236 28.1863 61.0719 28.1863 61.7482C28.1863 62.4245 28.7346 62.9728 29.4109 62.9728Z" fill="#BBBBCD"/>
</g>
<defs>
<clipPath id="clip0_922_2102">
<rect width="49.2" height="49.2" fill="white" transform="translate(16.4 16.4)"/>
</clipPath>
</defs>
</svg>
