<svg width="120" height="120" viewBox="0 0 120 120" fill="none" xmlns="http://www.w3.org/2000/svg">
<circle cx="60" cy="60" r="60" fill="#CFC4FB"/>
<circle cx="60" cy="60" r="48.3673" fill="#8E72FE"/>
<g clip-path="url(#clip0_5_1153)">
<path d="M87.5082 52.8452V95.5427H31.4918V52.8452L59.658 25.5223L87.5082 52.8452Z" fill="#E9EAEF"/>
<path d="M87.8061 31.9357V51.1064L78.2715 42.026L73.8021 37.7697V31.9357C73.8021 30.8019 74.7212 29.8828 75.855 29.8828H85.7535C86.8871 29.8827 87.8061 30.8019 87.8061 31.9357Z" fill="#9EB1B7"/>
<path d="M78.2714 29.8827V42.0261L73.802 37.7697V31.9357C73.802 30.8019 74.7211 29.8828 75.8548 29.8828H78.2714V29.8827Z" fill="#879BA0"/>
<path d="M96 88.9665V95.5425H62.1816V88.9665C62.1816 87.6569 63.2438 86.5963 64.5534 86.5963H93.6282C94.9378 86.5963 96 87.657 96 88.9665Z" fill="#9CCE21"/>
<path d="M34.8544 88.9665V95.5425H23V88.9665C23 87.6569 24.0608 86.5963 25.3702 86.5963H32.4824C33.7936 86.5963 34.8544 87.657 34.8544 88.9665Z" fill="#9CCE21"/>
<path d="M96 91.2012V95.5424H62.1816V91.2012C62.1816 89.8916 63.2438 88.831 64.5534 88.831H93.6282C94.9378 88.8309 96 89.8916 96 91.2012Z" fill="#85C10D"/>
<path d="M34.8544 91.2012V95.5424H23V91.2012C23 89.8916 24.0608 88.831 25.3702 88.831H32.4824C33.7936 88.8309 34.8544 89.8916 34.8544 91.2012Z" fill="#85C10D"/>
<path d="M87.5082 54.5213V62.5021L59.5 35.7603L31.4918 62.5021V54.5213L57.2758 29.9651L59.5 27.8986L61.7228 29.9651L87.5082 54.5213Z" fill="#D2D4D8"/>
<path d="M59.4996 31.319L27.6103 61.7648L23.1514 58.0215L57.2762 25.5226L59.4996 23.4571L61.7229 25.5226L95.8476 58.0215L91.3886 61.7648L59.4996 31.319Z" fill="#9747FF"/>
<path d="M56.8183 63.5522H38.3448V95.5426H56.8183V63.5522Z" fill="#C97523"/>
<path d="M83.219 63.5522H62.1816V82.0256H83.219V63.5522Z" fill="#A0D9F2"/>
<path d="M83.219 63.5522H62.1816V69.1658H83.219V63.5522Z" fill="#C97523"/>
<path d="M53.1782 80.5625H50.4966C49.8794 80.5625 49.3792 80.0622 49.3792 79.4451C49.3792 78.828 49.8794 78.3277 50.4966 78.3277H53.1782C53.7954 78.3277 54.2956 78.828 54.2956 79.4451C54.2956 80.0622 53.7954 80.5625 53.1782 80.5625Z" fill="#8E480E"/>
<path d="M59.5 54.4181C62.3385 54.4181 64.6395 52.117 64.6395 49.2786C64.6395 46.4401 62.3385 44.139 59.5 44.139C56.6615 44.139 54.3605 46.4401 54.3605 49.2786C54.3605 52.117 56.6615 54.4181 59.5 54.4181Z" fill="#413740"/>
<path d="M56.8184 62.4352H38.3448C37.7276 62.4352 37.2274 62.9355 37.2274 63.5526V95.543H39.462V64.6699H55.7008V95.5429H57.9355V63.5525C57.9357 62.9353 57.4356 62.4352 56.8184 62.4352Z" fill="#8E480E"/>
<path d="M83.2184 62.4352H62.1816C61.5644 62.4352 61.0642 62.9355 61.0642 63.5526V82.026C61.0642 82.6431 61.5644 83.1434 62.1816 83.1434H83.2184C83.8356 83.1434 84.3358 82.6431 84.3358 82.026V63.5525C84.3358 62.9353 83.8356 62.4352 83.2184 62.4352ZM82.101 64.6699V68.0487H63.299V64.6699H82.101ZM63.299 80.9087V70.2835H82.101V80.9087H63.299Z" fill="#8E480E"/>
<path d="M59.5 55.5352C56.0499 55.5352 53.2431 52.7284 53.2431 49.2783C53.2431 45.8282 56.0499 43.0212 59.5 43.0212C62.9501 43.0212 65.7569 45.828 65.7569 49.2783C65.7569 52.7282 62.9501 55.5352 59.5 55.5352ZM59.5 45.256C57.2822 45.256 55.4779 47.0603 55.4779 49.2783C55.4779 51.4961 57.2822 53.3004 59.5 53.3004C61.7178 53.3004 63.5221 51.4961 63.5221 49.2783C63.5221 47.0603 61.7178 45.256 59.5 45.256Z" fill="#EA4756"/>
</g>
<defs>
<clipPath id="clip0_5_1153">
<rect width="73" height="73" fill="white" transform="translate(23 23)"/>
</clipPath>
</defs>
</svg>
