<svg width="40" height="40" viewBox="0 0 40 40" fill="none" xmlns="http://www.w3.org/2000/svg">
<circle r="20" transform="matrix(-1 0 0 1 20 20)" fill="white"/>
<path d="M23.3533 9.00038C23.6743 8.99323 23.9895 9.08749 24.2552 9.27019C24.5208 9.4529 24.7236 9.71503 24.8354 10.0199C24.9472 10.3248 24.9625 10.6573 24.8791 10.9714C24.7957 11.2854 24.6178 11.5653 24.3701 11.7722L14.918 19.9747L24.3701 28.1744C24.5414 28.3019 24.6849 28.4639 24.7916 28.6503C24.8983 28.8366 24.9658 29.0434 24.99 29.2574C25.0142 29.4714 24.9944 29.6882 24.9321 29.8941C24.8697 30.1001 24.766 30.2908 24.6276 30.4543C24.4891 30.6178 24.3187 30.7504 24.1273 30.8442C23.9358 30.9379 23.7272 30.9905 23.5147 30.9988C23.3022 31.0071 23.0903 30.971 22.8923 30.8925C22.6942 30.814 22.5143 30.695 22.3638 30.5428L11.542 21.1635C11.3721 21.0166 11.2356 20.8343 11.142 20.6288C11.0485 20.4232 11 20.1996 11 19.9733C11 19.7469 11.0485 19.5233 11.142 19.3178C11.2356 19.1123 11.3721 18.9297 11.542 18.7828L22.3638 9.39454C22.6372 9.14857 22.9878 9.00873 23.3533 9.00002V9.00038Z" fill="#714EFF"/>
</svg>
