<svg width="22" height="22" viewBox="0 0 22 22" fill="none" xmlns="http://www.w3.org/2000/svg">
<path fill-rule="evenodd" clip-rule="evenodd" d="M8.99861 0.439106C5.91586 1.78115 5.18772 5.87751 7.60283 8.2919C9.58497 10.2729 12.415 10.2729 14.3972 8.2919C18.1894 4.50096 13.9229 -1.70498 8.99861 0.439106ZM6.41667 14.0993C3.90714 14.7813 2.09794 15.7101 1.07494 16.842C0.0779166 17.9452 0 18.1749 0 20.0156V22H11H22V20.0254C22 18.2332 21.9083 17.9464 21.0069 16.9202C19.9558 15.7235 18.2524 14.835 15.7392 14.1723L14.2114 13.7694L12.6057 15.3546L11 16.9397L9.38636 15.3466C8.49872 14.4703 7.70794 13.766 7.62942 13.781C7.55058 13.7963 7.00486 13.9395 6.41667 14.0993Z" fill="#3E4155"/>
</svg>
