<svg width="12" height="22" viewBox="0 0 12 22" fill="none" xmlns="http://www.w3.org/2000/svg">
<path d="M3.78641 14.3984C3.78641 13.6631 3.85437 13.0271 3.99029 12.4905C4.14563 11.9539 4.40777 11.4472 4.7767 10.9702C5.16505 10.4734 5.6699 9.96658 6.29126 9.44987C7.00971 8.85366 7.56311 8.35682 7.95146 7.95935C8.35922 7.54201 8.64078 7.14454 8.79612 6.76694C8.97087 6.36947 9.05825 5.8925 9.05825 5.33604C9.05825 4.48148 8.7767 3.82566 8.21359 3.36856C7.6699 2.91147 6.87379 2.68293 5.82524 2.68293C4.91262 2.68293 4.07767 2.81211 3.32039 3.07046C2.56311 3.30894 1.82524 3.60705 1.1068 3.96477L0 1.57995C0.834951 1.12286 1.74757 0.745258 2.73786 0.447155C3.72816 0.149052 4.82524 0 6.02913 0C7.93204 0 9.39806 0.476965 10.4272 1.43089C11.4757 2.38482 12 3.65673 12 5.24661C12 6.10117 11.8641 6.84643 11.5922 7.48239C11.3204 8.09846 10.9223 8.66486 10.3981 9.18157C9.8932 9.69828 9.29126 10.2547 8.59223 10.8509C7.97087 11.3677 7.49515 11.8148 7.16505 12.1924C6.83495 12.57 6.61165 12.9476 6.49515 13.3252C6.37864 13.6829 6.32039 14.1301 6.32039 14.6667V15.2629H3.78641V14.3984ZM3.17476 19.8238C3.17476 19.0488 3.35922 18.5023 3.72816 18.1843C4.1165 17.8663 4.60194 17.7073 5.18447 17.7073C5.72816 17.7073 6.19417 17.8663 6.58252 18.1843C6.97087 18.5023 7.16505 19.0488 7.16505 19.8238C7.16505 20.5989 6.97087 21.1554 6.58252 21.4932C6.19417 21.8311 5.72816 22 5.18447 22C4.60194 22 4.1165 21.8311 3.72816 21.4932C3.35922 21.1554 3.17476 20.5989 3.17476 19.8238Z" fill="#3E4155"/>
</svg>
