<svg width="25" height="25" viewBox="0 0 25 25" fill="none" xmlns="http://www.w3.org/2000/svg">
<path d="M24.1385 23.0654L17.9773 17.0026C19.5908 15.2497 20.5821 12.9314 20.5821 10.3804C20.5813 4.92324 16.0865 0.5 10.5413 0.5C4.99621 0.5 0.501343 4.92324 0.501343 10.3804C0.501343 15.8375 4.99621 20.2607 10.5413 20.2607C12.9372 20.2607 15.1347 19.432 16.8607 18.0543L23.0458 24.141C23.3472 24.4378 23.8365 24.4378 24.1378 24.141C24.4399 23.8441 24.4399 23.3622 24.1385 23.0654ZM10.5413 18.7406C5.84956 18.7406 2.04614 14.9976 2.04614 10.3804C2.04614 5.76313 5.84956 2.02015 10.5413 2.02015C15.2332 2.02015 19.0365 5.76313 19.0365 10.3804C19.0365 14.9976 15.2332 18.7406 10.5413 18.7406Z" fill="#714EFF"/>
</svg>
