<svg width="13" height="8" viewBox="0 0 13 8" fill="none" xmlns="http://www.w3.org/2000/svg">
<path d="M6.5 8C2.24727 8 0.138836 4.3496 0.0511875 4.1943C-0.0170625 4.0734 -0.0170625 3.9265 0.0511875 3.8056C0.138836 3.6504 2.24727 0 6.5 0C10.7527 0 12.8612 3.6504 12.9488 3.8057C13.0171 3.9266 13.0171 4.0735 12.9488 4.1944C12.8612 4.3496 10.7527 8 6.5 8ZM0.884305 3.9994C1.36754 4.7205 3.26483 7.2 6.5 7.2C9.74543 7.2 11.6343 4.7225 12.1157 4.0006C11.6325 3.2795 9.73517 0.8 6.5 0.8C3.25457 0.8 1.36571 3.2775 0.884305 3.9994ZM6.5 6.4C5.15592 6.4 4.0625 5.3234 4.0625 4C4.0625 2.6766 5.15592 1.6 6.5 1.6C7.84408 1.6 8.9375 2.6766 8.9375 4C8.9375 5.3234 7.84408 6.4 6.5 6.4ZM6.5 2.4C5.60402 2.4 4.875 3.1178 4.875 4C4.875 4.8822 5.60402 5.6 6.5 5.6C7.39598 5.6 8.125 4.8822 8.125 4C8.125 3.1178 7.39598 2.4 6.5 2.4Z" fill="#714EFF"/>
</svg>
