<svg width="16" height="22" viewBox="0 0 16 22" fill="none" xmlns="http://www.w3.org/2000/svg">
<path d="M15.8197 5.10326L10.8967 0.180308C10.7818 0.0653538 10.625 0 10.4615 0H1.84615C0.828185 0 0 0.828185 0 1.84615V19.159C0 20.1769 0.828185 21.0051 1.84615 21.0051H14.1538C15.1718 21.0051 16 20.1769 16 19.159V5.53846C16 5.37067 15.9296 5.21309 15.8197 5.10326ZM11.0769 2.10105L13.899 4.92308H11.6923C11.353 4.92308 11.0769 4.64702 11.0769 4.30769V2.10105ZM14.1538 19.7744H1.84615C1.50683 19.7744 1.23077 19.4983 1.23077 19.159V1.84615C1.23077 1.50683 1.50683 1.23077 1.84615 1.23077H9.84615V4.30769C9.84615 5.32566 10.6743 6.15385 11.6923 6.15385H14.7692V19.159C14.7692 19.4983 14.4932 19.7744 14.1538 19.7744Z" fill="#3E4155"/>
<path d="M11.6923 8.69727H4.30771C3.96785 8.69727 3.69232 8.97279 3.69232 9.31265C3.69232 9.65251 3.96785 9.92803 4.30771 9.92803H11.6923C12.0322 9.92803 12.3077 9.65251 12.3077 9.31265C12.3077 8.97279 12.0322 8.69727 11.6923 8.69727Z" fill="#3E4155"/>
<path d="M11.6923 11.1592H4.30771C3.96785 11.1592 3.69232 11.4347 3.69232 11.7746C3.69232 12.1144 3.96785 12.3899 4.30771 12.3899H11.6923C12.0322 12.3899 12.3077 12.1144 12.3077 11.7746C12.3077 11.4347 12.0322 11.1592 11.6923 11.1592Z" fill="#3E4155"/>
<path d="M11.6923 13.6211H4.30771C3.96785 13.6211 3.69232 13.8966 3.69232 14.2365C3.69232 14.5763 3.96785 14.8519 4.30771 14.8519H11.6923C12.0322 14.8519 12.3077 14.5763 12.3077 14.2365C12.3077 13.8966 12.0322 13.6211 11.6923 13.6211Z" fill="#3E4155"/>
<path d="M9.23078 16.082H4.30771C3.96785 16.082 3.69232 16.3576 3.69232 16.6974C3.69232 17.0373 3.96785 17.3128 4.30771 17.3128H9.23078C9.57064 17.3128 9.84617 17.0373 9.84617 16.6974C9.84617 16.3576 9.57064 16.082 9.23078 16.082Z" fill="#3E4155"/>
</svg>
