<svg width="24" height="24" viewBox="0 0 24 24" fill="none" xmlns="http://www.w3.org/2000/svg">
<circle cx="12" cy="12" r="12" fill="#714EFF"/>
<path d="M12.801 9.51354V17.5384H11.1837V9.51354H12.801ZM12.0076 6.46143C12.2518 6.46143 12.4654 6.5309 12.6485 6.66986C12.8315 6.80882 12.9231 7.04207 12.9231 7.36961C12.9231 7.68723 12.8315 7.92048 12.6485 8.06937C12.4654 8.20832 12.2518 8.2778 12.0076 8.2778C11.7432 8.2778 11.5194 8.20832 11.3363 8.06937C11.1634 7.92048 11.0769 7.68723 11.0769 7.36961C11.0769 7.04207 11.1634 6.80882 11.3363 6.66986C11.5194 6.5309 11.7432 6.46143 12.0076 6.46143Z" fill="white"/>
</svg>
