<svg width="50" height="50" viewBox="0 0 50 50" fill="none" xmlns="http://www.w3.org/2000/svg">
<circle cx="25" cy="25" r="24" fill="white" stroke="#f7f6fa" stroke-width="2"/>
<path fill-rule="evenodd" clip-rule="evenodd" d="M7 39.5C8.24602 33.9131 12.3773 32.3982 16.4649 30.6349C16.5204 30.6109 16.5759 30.587 16.6314 30.563C14.2427 30.2975 12.2768 29.5123 12.158 29.4639C11.7458 29.2965 11.587 28.7999 11.8353 28.4314C12.8364 26.9436 13.1485 26.3194 13.1485 25.3142C13.1485 23.294 12.9821 22.3909 12.8098 21.4557C12.6247 20.4514 12.4328 19.41 12.4328 16.9083C12.4328 12.3159 15.2131 8.79946 17.8151 7.03983C19.6822 5.77754 21.6122 5.2816 23.0742 5.65216C23.5874 5.40278 24.7274 5 26.764 5C29.7926 5 36.6784 9.49855 36.6784 16.9083C36.6784 19.4203 36.4837 20.4745 36.2948 21.4938L36.2936 21.5C36.1237 22.4209 35.9627 23.2937 35.9627 25.3142C35.9627 26.1918 36.0958 26.2984 37.1309 27.1274C37.4407 27.3747 37.4835 27.822 37.2251 28.1218C37.1349 28.2262 35.391 30.1742 31.6954 30.2625C31.8158 30.3139 31.9361 30.3651 32.0563 30.4162C36.5175 32.3158 41.2363 34.3546 42.5 40C42.0959 40.3929 41.9308 40.6348 41.5 41C40.8498 37.0532 37.9237 34.7044 34.7061 33.145C32.2687 36.1473 28.4894 37.9196 24.5134 37.9231H24.5012C20.4951 37.9231 16.7237 36.1522 14.2856 33.1611C10.967 34.7758 8.62759 36.6967 8 40.5C7.56892 40.1346 7.40436 39.8932 7 39.5ZM18.3196 20.6917C18.5579 20.7779 18.7475 21.0454 18.779 21.2402C19.2406 24.1052 21.94 26.7152 24.4411 26.7152C27.0145 26.7152 29.7139 24.1052 30.1754 21.2402C30.2127 21.0083 30.4538 20.7575 30.6349 20.6917C31.2432 20.4724 31.669 19.7804 31.669 19.0098C31.669 18.3373 31.3469 17.7279 30.8632 17.4407C27.6929 16.3984 24.902 14.5792 22.7157 12.1359C22.0144 14.2115 20.498 16.0727 18.4398 17.2775C18.4055 17.2978 18.3769 17.3139 18.3153 17.3356C16.9477 17.8183 16.947 20.1964 18.3196 20.6917ZM18.6288 8.19214C16.3251 9.75003 13.8641 12.8581 13.8641 16.9083C13.8641 19.2058 14.0505 20.2679 14.233 21.3081C14.4081 22.3062 14.5797 23.2842 14.5797 25.3142C14.5797 26.4546 14.2613 27.27 13.5192 28.4538C14.7958 28.8608 17.3585 29.5123 19.6306 29.1214C20.2639 28.4855 20.2386 27.779 20.214 27.0936C20.2052 26.848 20.1965 26.6051 20.2182 26.3692C18.8628 25.2127 17.8244 23.5903 17.443 21.8314C16.479 21.3046 15.8535 20.2231 15.8535 19.0098C15.8535 17.6852 16.5978 16.5259 17.712 16.0713C19.8639 14.809 21.3388 12.7292 21.6573 10.5066C21.7468 9.89083 22.5561 9.68628 22.9376 10.1836L22.939 10.1843C24.9971 12.877 27.786 14.8755 31.0127 16.0019C31.9903 16.1805 33.1002 17.4043 33.1002 19.0098C33.1002 20.2231 32.4748 21.3053 31.5101 21.8314C31.1351 23.5637 30.1225 25.1629 28.8064 26.3166V27.7169C28.8064 28.0244 28.878 28.3193 29.0075 28.5848C32.5442 29.3596 34.6617 28.3376 35.5835 27.6833C34.8829 27.0676 34.5315 26.5289 34.5315 25.3142C34.5315 23.163 34.7118 22.1879 34.8864 21.2444C35.0639 20.2861 35.2471 19.2949 35.2471 16.9083C35.2471 10.2432 28.8093 6.40098 26.764 6.40098C24.5142 6.40098 23.6211 6.94968 23.5849 6.97192L23.5838 6.97258C23.6704 6.93966 23.2439 7.17713 22.9147 7.05594C21.8741 6.66927 20.2325 7.10708 18.6288 8.19214ZM17.3871 31.7672C16.7259 32.0516 16.1341 32.3114 15.6188 32.5426C16.3545 33.3909 17.2132 34.1201 18.1636 34.7141C17.78 33.8098 17.5181 32.8151 17.3871 31.7672ZM18.7662 31.1808C18.92 32.9755 19.5004 34.5992 20.4293 35.816C22.9597 36.7238 25.8287 36.7862 28.518 35.8293C29.4577 34.5957 30.0416 32.958 30.1898 31.1507C29.9643 31.0562 29.7353 30.9602 29.4992 30.8614C28.1881 30.3143 27.3752 29.0521 27.3752 27.7162V27.3267C25.4222 28.3957 23.5315 28.3509 21.6501 27.3506V27.7169C21.6501 29.0892 20.8164 30.3234 19.5262 30.8621C19.2657 30.9707 19.0138 31.0765 18.7662 31.1808ZM31.5702 31.7377C31.4407 32.8046 31.173 33.8175 30.7801 34.7379C31.7491 34.1362 32.625 33.3937 33.3729 32.5272C32.8483 32.2918 32.2443 32.027 31.5702 31.7377Z" fill="#3E4155"/>
</svg>
